<svg preserveAspectRatio="none" width="100%" height="100%" overflow="visible" style="display: block;" viewBox="0 0 106 149" fill="none" xmlns="http://www.w3.org/2000/svg">
<g id="Group">
<path id="Vector" d="M4.96455 3.2996L100.855 3.2996C103.582 3.2997 105.792 5.46678 105.792 8.13847L105.792 143.37C105.792 146.042 103.582 148.209 100.855 148.209H4.96455C2.23776 148.209 0.0280228 146.042 0.0280228 143.37L0.0280228 8.13847C0.0280605 5.46687 2.23778 3.29984 4.96455 3.2996Z" fill="var(--fill-0, #AA99FF)" stroke="var(--stroke-0, #9999CC)" stroke-width="0.0572329"/>
<path id="Vector_2" d="M4.96455 4.53007L21.5466 4.53007C23.1226 4.53012 24.5857 5.29681 25.4587 6.56034L33.1481 17.6892C33.8921 18.7661 35.1218 19.4037 36.4294 19.4109V19.4119L70.1423 19.6297H70.1433C71.5523 19.6371 72.8724 18.9111 73.6013 17.7029L80.1784 6.79862C81.0219 5.40027 82.565 4.53009 84.2448 4.53007L100.855 4.53007C102.926 4.53015 104.561 6.16921 104.561 8.13847L104.561 143.37C104.561 145.339 102.926 146.978 100.855 146.978H4.96455C2.89393 146.978 1.25849 145.339 1.25849 143.37L1.25849 8.13847C1.25853 6.16928 2.89395 4.53031 4.96455 4.53007Z" fill="var(--fill-0, #CECDFF)" stroke="var(--stroke-0, #7B4EAB)" stroke-width="2.51758"/>
<path id="Vector_3" d="M52.9756 0.0284907C56.0809 0.0287174 58.5909 2.21636 58.5909 4.90642V5.36345H58.6192L72.4209 5.40251C73.9755 5.40251 75.2509 6.76284 75.251 8.42986C75.251 10.097 73.9756 11.4582 72.4209 11.4582L33.3985 11.4582C31.8439 11.458 30.5684 10.097 30.5684 8.42986C30.5686 6.76294 31.8441 5.40267 33.3985 5.40251L47.3311 5.36345H47.3594V4.90642C47.3594 2.21628 49.8702 0.0284907 52.9756 0.0284907Z" fill="var(--fill-0, #4E2DA3)" stroke="var(--stroke-0, #9999CC)" stroke-width="0.0572329"/>
<path id="Vector_4" d="M102.602 16.8688L93.3717 141.07L6.09827 134.678L15.3287 10.4762L102.602 16.8688Z" fill="var(--fill-0, #4E2DA3)" stroke="var(--stroke-0, #9999CC)" stroke-width="0.0572329"/>
<path id="Vector_5" d="M103.608 16.6276L94.3788 140.824L6.79853 134.316L16.0273 10.1197L103.608 16.6276Z" fill="var(--fill-0, #AA99FF)" stroke="var(--stroke-0, #9999CC)" stroke-width="0.0572329"/>
<path id="Vector_6" d="M98.197 137.785L10.4148 140.734L6.45384 16.2529L94.2361 13.3037L98.197 137.785Z" fill="var(--fill-0, #7E58CE)" stroke="var(--stroke-0, #9999CC)" stroke-width="0.0572329"/>
<path id="Vector_7" d="M94.8217 12.9156L98.7822 137.398L10.9999 140.191L7.03942 15.7084L94.8217 12.9156Z" fill="var(--fill-0, #E4E7FF)" stroke="var(--stroke-0, #9999CC)" stroke-width="0.0572329"/>
<path id="Vector_8" d="M99.1204 13.4817L99.1204 138.027H11.2942L11.2942 13.4817L99.1204 13.4817Z" fill="var(--fill-0, white)" stroke="var(--stroke-0, #9999CC)" stroke-width="0.0572329"/>
<path id="Vector_9" d="M52.6447 1.62501C54.2221 1.62509 55.6488 2.11069 56.6809 2.89356C57.713 3.67654 58.3488 4.75612 58.3488 5.9463V6.88185H58.3771L70.218 6.92091C70.5072 6.92091 70.7444 7.16847 70.7443 7.47657V15.7705C70.7441 16.0785 70.5071 16.3252 70.218 16.3252H35.0568C34.7678 16.3251 34.5307 16.0785 34.5305 15.7705V7.47657C34.5305 7.16846 34.7676 6.92098 35.0568 6.92091L46.9113 6.88185H46.9396V5.9463C46.9396 4.75611 47.5755 3.67653 48.6076 2.89356C49.6397 2.11058 51.0672 1.62501 52.6447 1.62501Z" fill="var(--fill-0, #5B748C)" stroke="var(--stroke-0, #9999CC)" stroke-width="0.0572329"/>
<path id="Vector_10" d="M52.917 1.2745C54.4943 1.27457 55.9211 1.76019 56.9531 2.54306C57.9852 3.32604 58.6211 4.40562 58.6211 5.59579V6.53134H58.6504L70.4902 6.5704C70.7795 6.5704 71.0166 6.81791 71.0166 7.12607V15.42C71.0163 15.728 70.7793 15.9747 70.4902 15.9747L35.3291 15.9747C35.04 15.9746 34.8029 15.7279 34.8027 15.42V7.12607C34.8027 6.81797 35.0399 6.57051 35.3291 6.5704L47.1836 6.53134H47.2119V5.59579C47.2119 4.40564 47.8478 3.32603 48.8799 2.54306C49.912 1.76006 51.3394 1.2745 52.917 1.2745Z" fill="var(--fill-0, #AA99FF)" stroke="var(--stroke-0, #9999CC)" stroke-width="0.0572329"/>
<path id="Vector_11" opacity="0.5" d="M52.9168 2.40392C54.4955 2.40392 55.9235 2.78522 56.9558 3.40001C57.9888 4.01531 58.6218 4.86173 58.6218 5.79064V6.47423L47.2117 6.47423V5.79064C47.2117 4.86173 47.8447 4.01531 48.8777 3.40001C49.91 2.78523 51.3381 2.40392 52.9168 2.40392Z" fill="url(#paint0_linear_3796_75764)" stroke="var(--stroke-0, #9999CC)" stroke-width="0.0572329"/>
<path id="Vector_12" opacity="0.5" d="M35.3295 12.8785L70.4906 12.8785C70.6425 12.8785 70.7793 12.8917 70.8773 12.9117C70.9266 12.9217 70.9647 12.9328 70.9896 12.9449C71.002 12.9508 71.0098 12.9563 71.014 12.9605C71.018 12.9645 71.0171 12.9655 71.017 12.9634V14.5669C71.0171 14.5649 71.018 14.5659 71.014 14.5699C71.0098 14.5741 71.002 14.5795 70.9896 14.5855C70.9647 14.5975 70.9266 14.6087 70.8773 14.6187C70.7793 14.6387 70.6425 14.6519 70.4906 14.6519L35.3295 14.6519C35.1776 14.6519 35.0407 14.6386 34.9428 14.6187C34.8937 14.6087 34.8554 14.5975 34.8305 14.5855C34.8181 14.5795 34.8102 14.5741 34.806 14.5699C34.8021 14.5659 34.803 14.5649 34.8031 14.5669V12.9634C34.803 12.9654 34.8021 12.9644 34.806 12.9605C34.8102 12.9563 34.8181 12.9509 34.8305 12.9449C34.8554 12.9329 34.8937 12.9217 34.9428 12.9117C35.0407 12.8917 35.1777 12.8785 35.3295 12.8785Z" fill="url(#paint1_linear_3796_75764)" stroke="var(--stroke-0, #9999CC)" stroke-width="0.0572329"/>
<path id="Vector_13" d="M31.2976 27.473L75.0281 27.473C75.2325 27.473 75.4 27.6407 75.4002 27.8451V28.2836C75.4001 28.4881 75.2326 28.6556 75.0281 28.6556L31.2976 28.6556C31.0932 28.6555 30.9256 28.488 30.9255 28.2836V27.8451C30.9257 27.6407 31.0933 27.4732 31.2976 27.473Z" fill="var(--fill-0, #AA99FF)" stroke="var(--stroke-0, #9999CC)" stroke-width="0.0572329"/>
<g id="Group 2151">
<path id="Vector_14" d="M18.4838 39.321H34.5922C34.7967 39.321 34.9641 39.4887 34.9643 39.6931V40.1316C34.9642 40.3361 34.7967 40.5037 34.5922 40.5037H18.4838C18.2794 40.5035 18.1118 40.336 18.1117 40.1316V39.6931C18.1119 39.4888 18.2795 39.3212 18.4838 39.321Z" fill="var(--fill-0, #AA99FF)" stroke="var(--stroke-0, #9999CC)" stroke-width="0.0572329"/>
<path id="Vector_15" d="M18.4834 43.2161L62.2139 43.2161C62.4184 43.2161 62.5859 43.3838 62.586 43.5882V44.0267C62.586 44.2312 62.4184 44.3987 62.2139 44.3987L18.4834 44.3987C18.279 44.3986 18.1114 44.2311 18.1114 44.0267V43.5882C18.1115 43.3838 18.2791 43.2163 18.4834 43.2161Z" fill="var(--fill-0, #AA99FF)" stroke="var(--stroke-0, #9999CC)" stroke-width="0.0572329"/>
<path id="Vector_16" d="M18.4838 47.1117L62.2142 47.1117C62.4187 47.1117 62.5862 47.2794 62.5863 47.4838V47.9223C62.5863 48.1269 62.4188 48.2943 62.2142 48.2943L18.4838 48.2943C18.2793 48.2942 18.1117 48.1267 18.1117 47.9223V47.4838C18.1118 47.2794 18.2794 47.1119 18.4838 47.1117Z" fill="var(--fill-0, #AA99FF)" stroke="var(--stroke-0, #9999CC)" stroke-width="0.0572329"/>
<path id="Vector_17" d="M18.4838 51.0075L54.2465 51.0075C54.4509 51.0075 54.6184 51.1751 54.6185 51.3796V51.8181C54.6185 52.0226 54.451 52.1901 54.2465 52.1901L18.4838 52.1901C18.2793 52.19 18.1117 52.0225 18.1117 51.8181V51.3796C18.1118 51.1752 18.2794 51.0076 18.4838 51.0075Z" fill="var(--fill-0, #AA99FF)" stroke="var(--stroke-0, #9999CC)" stroke-width="0.0572329"/>
<path id="Vector_18" d="M18.4841 54.9023L58.1423 54.9023C58.3467 54.9023 58.5142 55.0699 58.5144 55.2743V55.7128C58.5143 55.9173 58.3468 56.0848 58.1423 56.0849L18.4841 56.0849C18.2797 56.0847 18.112 55.9172 18.112 55.7128V55.2743C18.1121 55.07 18.2797 54.9024 18.4841 54.9023Z" fill="var(--fill-0, #AA99FF)" stroke="var(--stroke-0, #9999CC)" stroke-width="0.0572329"/>
</g>
<g id="Group_2">
<path id="Vector_19" d="M18.4841 106.456H46.3249C46.5293 106.456 46.6968 106.623 46.697 106.828V107.266C46.6969 107.471 46.5294 107.638 46.3249 107.638H18.4841C18.2796 107.638 18.112 107.471 18.112 107.266V106.828C18.1121 106.623 18.2797 106.456 18.4841 106.456Z" fill="var(--fill-0, #AA99FF)" stroke="var(--stroke-0, #9999CC)" stroke-width="0.0572329"/>
<path id="Vector_20" d="M18.484 110.351L93.112 110.351C93.3164 110.351 93.4839 110.519 93.484 110.723V111.162C93.4841 111.366 93.3165 111.534 93.112 111.534L18.484 111.534C18.2796 111.534 18.112 111.366 18.112 111.162V110.723C18.1121 110.519 18.2797 110.352 18.484 110.351Z" fill="var(--fill-0, #AA99FF)" stroke="var(--stroke-0, #9999CC)" stroke-width="0.0572329"/>
<path id="Vector_21" d="M18.4837 114.246L93.1116 114.246C93.3161 114.246 93.4836 114.414 93.4837 114.619V115.057C93.4837 115.262 93.3161 115.429 93.1116 115.429L18.4837 115.429C18.2793 115.429 18.1116 115.261 18.1116 115.057V114.619C18.1117 114.414 18.2793 114.247 18.4837 114.246Z" fill="var(--fill-0, #AA99FF)" stroke="var(--stroke-0, #9999CC)" stroke-width="0.0572329"/>
<path id="Vector_22" d="M18.484 118.142L79.6159 118.142C79.8203 118.142 79.9878 118.31 79.9879 118.514V118.953C79.9879 119.157 79.8204 119.325 79.6159 119.325L18.484 119.325C18.2796 119.325 18.112 119.157 18.1119 118.953V118.514C18.1121 118.31 18.2797 118.142 18.484 118.142Z" fill="var(--fill-0, #AA99FF)" stroke="var(--stroke-0, #9999CC)" stroke-width="0.0572329"/>
<path id="Vector_23" d="M18.484 122.037L86.2145 122.037C86.4188 122.037 86.5864 122.205 86.5865 122.409V122.848C86.5865 123.052 86.4189 123.22 86.2145 123.22L18.484 123.22C18.2796 123.22 18.112 123.052 18.1119 122.848V122.409C18.1121 122.205 18.2796 122.037 18.484 122.037Z" fill="var(--fill-0, #AA99FF)" stroke="var(--stroke-0, #9999CC)" stroke-width="0.0572329"/>
</g>
<g id="Group_3">
<path id="Vector_24" d="M18.4842 72.8885H46.3251C46.5295 72.8885 46.697 73.0561 46.6971 73.2606V73.6991C46.6971 73.9036 46.5296 74.0711 46.3251 74.0711H18.4842C18.2798 74.071 18.1122 73.9035 18.1122 73.6991V73.2606C18.1123 73.0562 18.2799 72.8886 18.4842 72.8885Z" fill="var(--fill-0, #AA99FF)" stroke="var(--stroke-0, #9999CC)" stroke-width="0.0572329"/>
<path id="Vector_25" d="M18.4839 76.7836L93.1118 76.7836C93.3163 76.7836 93.4837 76.9512 93.4839 77.1557V77.5941C93.4839 77.7986 93.3163 77.9662 93.1118 77.9662L18.4839 77.9662C18.2795 77.9661 18.1118 77.7986 18.1118 77.5941V77.1557C18.1119 76.9513 18.2795 76.7837 18.4839 76.7836Z" fill="var(--fill-0, #AA99FF)" stroke="var(--stroke-0, #9999CC)" stroke-width="0.0572329"/>
<path id="Vector_26" d="M18.4835 80.6795L93.1114 80.6795C93.3159 80.6795 93.4834 80.8472 93.4835 81.0516V81.4901C93.4835 81.6946 93.316 81.8622 93.1114 81.8622L18.4835 81.8622C18.2791 81.862 18.1115 81.6945 18.1114 81.4901V81.0516C18.1116 80.8473 18.2792 80.6797 18.4835 80.6795Z" fill="var(--fill-0, #AA99FF)" stroke="var(--stroke-0, #9999CC)" stroke-width="0.0572329"/>
<path id="Vector_27" d="M18.4838 84.5751L79.6157 84.5751C79.8201 84.5751 79.9876 84.7428 79.9877 84.9472V85.3857C79.9877 85.5902 79.8202 85.7578 79.6157 85.7578L18.4838 85.7578C18.2794 85.7576 18.1118 85.5901 18.1118 85.3857V84.9472C18.1119 84.7429 18.2795 84.5753 18.4838 84.5751Z" fill="var(--fill-0, #AA99FF)" stroke="var(--stroke-0, #9999CC)" stroke-width="0.0572329"/>
<path id="Vector_28" d="M18.4838 88.4701L86.2143 88.4701C86.4186 88.4702 86.5862 88.6378 86.5864 88.8421V89.2806C86.5863 89.485 86.4187 89.6526 86.2143 89.6527L18.4838 89.6527C18.2794 89.6525 18.1118 89.485 18.1118 89.2806V88.8421C18.1119 88.6378 18.2795 88.4702 18.4838 88.4701Z" fill="var(--fill-0, #AA99FF)" stroke="var(--stroke-0, #9999CC)" stroke-width="0.0572329"/>
</g>
</g>
<defs>
<linearGradient id="paint0_linear_3796_75764" x1="52.9167" y1="2.37558" x2="52.9167" y2="6.503" gradientUnits="userSpaceOnUse">
<stop stop-color="white"/>
<stop offset="0.6104" stop-color="#DEDDFF"/>
<stop offset="1" stop-color="#CECDFF"/>
</linearGradient>
<linearGradient id="paint1_linear_3796_75764" x1="52.9102" y1="14.6802" x2="52.9102" y2="12.8501" gradientUnits="userSpaceOnUse">
<stop stop-color="white"/>
<stop offset="0.6104" stop-color="#DEDDFF"/>
<stop offset="1" stop-color="#CECDFF"/>
</linearGradient>
</defs>
</svg>
