<svg preserveAspectRatio="none" width="100%" height="100%" overflow="visible" style="display: block;" viewBox="0 0 109 145" fill="none" xmlns="http://www.w3.org/2000/svg">
<g id="Group">
<path id="Vector" d="M108.256 6.21112V138.493C108.256 141.923 105.45 144.704 101.989 144.704H6.26651C2.80537 144.704 0 141.923 0 138.493V6.21112C0 2.78054 2.80537 0 6.26651 0H101.989C105.45 0 108.256 2.78054 108.256 6.21112Z" fill="url(#paint0_linear_3705_66154)"/>
<path id="Vector_2" d="M6.26681 142.895C3.80885 142.895 1.80909 140.92 1.80909 138.492L1.80909 6.2109C1.80909 3.78329 3.80885 1.80813 6.26681 1.80813L101.99 1.80813C104.448 1.80813 106.448 3.78329 106.448 6.2109V138.492C106.448 140.92 104.448 142.895 101.99 142.895H6.26681Z" fill="var(--fill-0, white)"/>
<path id="Vector_3" d="M108.256 6.21112V16.1213H0V6.21112C0 2.78054 2.80537 0 6.26651 0H101.989C105.45 0 108.256 2.78054 108.256 6.21112Z" fill="url(#paint1_linear_3705_66154)"/>
<path id="Vector_4" d="M8.43268 3.48223C11.2818 3.48223 13.5914 5.79185 13.5914 8.64093V8.64115C13.5914 11.49 11.2818 13.7999 8.43268 13.7999C5.58359 13.7999 3.27375 11.4902 3.27375 8.64115V8.64093C3.27397 5.79185 5.58359 3.48223 8.43268 3.48223Z" fill="var(--fill-0, white)"/>
<path id="Vector_5" d="M79.7537 13.7999L23.3938 13.7999C20.5447 13.7999 18.2351 11.4902 18.2351 8.64094C18.2351 5.79185 20.5447 3.48224 23.3938 3.48224L79.7535 3.48224C82.6026 3.48224 84.9124 5.79185 84.9124 8.64094C84.9124 11.4902 82.6028 13.7999 79.7537 13.7999Z" fill="var(--fill-0, white)"/>
<path id="Vector_6" d="M98.067 13.7993H93.8111C90.962 13.7993 88.6524 11.4897 88.6524 8.6404C88.6524 5.79132 90.962 3.4817 93.8111 3.4817L98.0672 3.4817C100.916 3.4817 103.226 5.79132 103.226 8.6404C103.226 11.4897 100.916 13.7993 98.067 13.7993Z" fill="var(--fill-0, white)"/>
<path id="Vector_7" d="M90.0913 24.1173L19.8912 24.1173C18.6204 24.1173 17.5901 25.1477 17.5901 26.4185V72.3723C17.5901 73.6433 18.6204 74.6734 19.8912 74.6734H90.0915C91.3623 74.6734 92.3926 73.6433 92.3926 72.3723V26.4185C92.3924 25.1477 91.3621 24.1173 90.0913 24.1173Z" fill="var(--fill-0, #E3D9FF)"/>
<path id="Vector_8" d="M64.6538 46.8205L46.366 38.1578C45.6022 37.7962 44.7219 38.353 44.7219 39.1981V56.5235C44.7219 57.3686 45.6022 57.9257 46.366 57.5638L64.6538 48.9011C65.5316 48.4854 65.5316 47.2362 64.6538 46.8205Z" fill="var(--fill-0, #B397FF)"/>
<path id="Vector_9" d="M27.0908 79.1875H19.3093C18.3598 79.1875 17.5901 79.9572 17.5901 80.9069V85.722C17.5901 86.6717 18.3598 87.4414 19.3093 87.4414H27.0908C28.0408 87.4414 28.8105 86.6717 28.8105 85.722V80.9069C28.8105 79.9572 28.0408 79.1875 27.0908 79.1875Z" fill="var(--fill-0, #E3D9FF)"/>
<path id="Vector_10" d="M41.9225 79.1874H34.1407C33.191 79.1874 32.4212 79.9571 32.4212 80.9068V85.7219C32.4212 86.6716 33.191 87.4414 34.1407 87.4414H41.9225C42.8719 87.4414 43.6419 86.6716 43.6419 85.7219V80.9068C43.6419 79.9571 42.8719 79.1874 41.9225 79.1874Z" fill="var(--fill-0, #E3D9FF)"/>
<path id="Vector_11" d="M92.3927 79.1871H46.8665V87.441H92.3927V79.1871Z" fill="var(--fill-0, #E3D9FF)"/>
<path id="Vector_12" d="M91.2317 95.9529H18.7507C18.1096 95.9529 17.5901 95.4331 17.5901 94.792C17.5901 94.1511 18.1096 93.6314 18.7507 93.6314H91.2317C91.8726 93.6314 92.3924 94.1511 92.3924 94.792C92.3924 95.4331 91.8726 95.9529 91.2317 95.9529Z" fill="var(--fill-0, #E3D9FF)"/>
<path id="Vector_13" d="M84.239 101.886H25.7426C25.2252 101.886 24.8059 101.366 24.8059 100.725C24.8059 100.084 25.2252 99.5645 25.7426 99.5645H84.239C84.7562 99.5645 85.1758 100.084 85.1758 100.725C85.1758 101.366 84.7564 101.886 84.239 101.886Z" fill="var(--fill-0, #E3D9FF)"/>
<path id="Vector_14" d="M91.2314 107.819H18.7506C18.1095 107.819 17.5898 107.299 17.5898 106.658C17.5898 106.017 18.1093 105.497 18.7506 105.497H91.2314C91.8723 105.497 92.3921 106.017 92.3921 106.658C92.3921 107.299 91.8723 107.819 91.2314 107.819Z" fill="var(--fill-0, #E3D9FF)"/>
<path id="Vector_15" d="M84.2394 113.751H25.743C25.2256 113.751 24.8062 113.231 24.8062 112.59C24.8062 111.949 25.2256 111.43 25.743 111.43H84.2394C84.7565 111.43 85.1761 111.949 85.1761 112.59C85.1761 113.231 84.7568 113.751 84.2394 113.751Z" fill="var(--fill-0, #E3D9FF)"/>
<path id="Vector_16" d="M46.6478 127.293C46.6478 123.161 49.9967 119.812 54.128 119.812C58.2594 119.812 61.6083 123.161 61.6083 127.293C61.6083 131.424 58.2594 134.773 54.128 134.773C49.9967 134.773 46.6478 131.424 46.6478 127.293Z" fill="var(--fill-0, #E3D9FF)"/>
<path id="Vector_17" d="M68.1316 127.293C68.1316 123.161 71.4805 119.812 75.612 119.812C79.7432 119.812 83.0922 123.161 83.0922 127.293C83.0922 131.424 79.7432 134.773 75.612 134.773C71.4805 134.773 68.1316 131.424 68.1316 127.293Z" fill="var(--fill-0, #E3D9FF)"/>
<path id="Vector_18" d="M25.1641 127.293C25.1641 123.161 28.5129 119.812 32.6443 119.812C36.7756 119.812 40.1245 123.161 40.1245 127.293C40.1245 131.424 36.7756 134.773 32.6443 134.773C28.5131 134.773 25.1641 131.424 25.1641 127.293Z" fill="var(--fill-0, #E3D9FF)"/>
</g>
<defs>
<linearGradient id="paint0_linear_3705_66154" x1="-15.0853" y1="9.0327" x2="97.1193" y2="111.682" gradientUnits="userSpaceOnUse">
<stop stop-color="#AD88FF"/>
<stop offset="1" stop-color="#6038BA"/>
</linearGradient>
<linearGradient id="paint1_linear_3705_66154" x1="16.0641" y1="-25.0161" x2="128.269" y2="77.6334" gradientUnits="userSpaceOnUse">
<stop stop-color="#AD88FF"/>
<stop offset="1" stop-color="#6038BA"/>
</linearGradient>
</defs>
</svg>
