<svg preserveAspectRatio="none" width="100%" height="100%" overflow="visible" style="display: block;" viewBox="0 0 340 207" fill="none" xmlns="http://www.w3.org/2000/svg">
<g id="Group 2152">
<path id="Vector" d="M43.0214 68.2892C28.7227 66.62 26.0822 68.0186 19.4303 80.7854C21.0996 66.4867 19.7009 63.8462 6.93408 57.1944C21.2328 58.8636 23.8733 57.4649 30.5251 44.6982C28.8559 58.9968 30.2546 61.6374 43.0214 68.2892Z" fill="var(--fill-0, #7B4EAB)"/>
<path id="Vector_2" d="M161.616 200.926C156.796 199.34 155.785 199.636 152.587 203.575C154.173 198.755 153.877 197.745 149.938 194.546C154.758 196.132 155.768 195.836 158.967 191.897C157.381 196.717 157.677 197.727 161.616 200.926Z" fill="var(--fill-0, #7B4EAB)"/>
<path id="Vector_3" d="M184.144 17.7338C176.876 15.6372 175.387 16.1349 170.839 22.1797C172.936 14.9118 172.438 13.4226 166.394 8.87534C173.661 10.9718 175.151 10.4742 179.698 4.42945C177.601 11.6973 178.099 13.1864 184.144 17.7338Z" fill="var(--fill-0, #AA99FF)"/>
<path id="Vector_4" d="M334.391 56.0241C325.188 53.3693 323.302 53.9994 317.544 61.654C320.199 52.4506 319.569 50.5649 311.914 44.8066C321.118 47.4614 323.003 46.8313 328.762 39.1767C326.107 48.3802 326.737 50.2659 334.391 56.0241Z" fill="var(--fill-0, #AA99FF)"/>
<path id="Vector_5" d="M65.8632 83.6606C71.8533 88.1667 72.3464 89.6424 70.2689 96.8445C74.775 90.8544 76.2507 90.3613 83.4528 92.4388C77.4627 87.9327 76.9696 86.457 79.0471 79.2549C74.541 85.245 73.0653 85.7381 65.8632 83.6606Z" fill="var(--fill-0, #E4E7FF)"/>
<path id="Vector_6" d="M279.106 151.233C288.944 158.633 289.754 161.057 286.342 172.885C293.743 163.047 296.167 162.238 307.995 165.65C298.157 158.249 297.347 155.825 300.759 143.997C293.359 153.835 290.935 154.645 279.106 151.233Z" stroke="var(--stroke-0, #E4E7FF)" stroke-width="1.14466" stroke-miterlimit="10"/>
<path id="Vector_7" d="M46.1625 151.505C52.0075 154.781 52.6207 156.029 51.6408 162.658C54.9171 156.813 56.1655 156.2 62.7941 157.18C56.949 153.903 56.3358 152.655 57.3158 146.026C54.0395 151.872 52.7911 152.485 46.1625 151.505Z" fill="var(--fill-0, #7B4EAB)"/>
<path id="Vector_8" d="M179.78 189.221C185.77 193.727 186.263 195.203 184.186 202.405C188.692 196.415 190.168 195.922 197.37 198C191.38 193.493 190.887 192.018 192.964 184.816C188.458 190.806 186.982 191.299 179.78 189.221Z" stroke="var(--stroke-0, #AA99FF)" stroke-width="1.14466" stroke-miterlimit="10"/>
</g>
</svg>
