<svg width="570" height="132" viewBox="0 0 570 132" fill="none" xmlns="http://www.w3.org/2000/svg">
<g clip-path="url(#clip0_3786_40075)">
<rect width="570" height="132" rx="8" fill="url(#paint0_linear_3786_40075)"/>
<path d="M529.852 9.77927C529.892 9.64862 529.997 9.54137 530.139 9.50381C530.357 9.44637 530.58 9.57648 530.638 9.79452C530.911 10.8302 531.262 11.8243 531.681 12.7493C531.774 12.9545 531.683 13.1965 531.478 13.2898C531.272 13.3829 531.03 13.2917 530.938 13.0865C530.499 12.1202 530.133 11.0826 529.848 10.0027C529.828 9.92653 529.831 9.8495 529.852 9.77927ZM532.501 15.582C532.527 15.4977 532.58 15.4209 532.658 15.3667C532.843 15.238 533.098 15.284 533.227 15.4693C533.809 16.3077 534.463 17.0982 535.228 17.8859C535.386 18.0476 535.382 18.3057 535.22 18.4633C535.058 18.6203 534.8 18.6165 534.642 18.4546C533.846 17.6344 533.164 16.8105 532.556 15.9351C532.481 15.8276 532.465 15.6974 532.501 15.582ZM536.92 20.2048C536.935 20.1561 536.96 20.1093 536.994 20.0673C537.136 19.8923 537.393 19.8657 537.568 20.0077C538.298 20.6009 539.108 21.2098 540.116 21.924C540.299 22.0544 540.342 22.3084 540.213 22.4932C540.083 22.6772 539.828 22.7205 539.644 22.5901C538.621 21.8652 537.798 21.2462 537.053 20.6417C536.92 20.5336 536.873 20.3591 536.92 20.2048ZM542.133 23.965C542.145 23.9263 542.162 23.8888 542.187 23.8537C542.314 23.6677 542.568 23.6204 542.754 23.7478C543.74 24.4234 544.566 24.9972 545.394 25.6012C545.576 25.734 545.616 25.9888 545.483 26.1717C545.35 26.3538 545.095 26.3938 544.913 26.261C544.092 25.6624 543.272 25.0927 542.292 24.4212C542.141 24.3178 542.082 24.131 542.133 23.965ZM547.298 27.7834C547.314 27.7328 547.34 27.6841 547.376 27.6408C547.521 27.4682 547.778 27.4456 547.951 27.5904C548.827 28.3251 549.608 29.0459 550.34 29.7941C550.498 29.9553 550.495 30.2139 550.334 30.3715C550.173 30.5291 549.914 30.5261 549.756 30.365C549.044 29.636 548.282 28.9332 547.426 28.2162C547.297 28.1076 547.251 27.9356 547.298 27.7834ZM537.337 67.9049C537.396 67.7124 537.59 67.5883 537.794 67.6223C538.016 67.6591 538.166 67.8695 538.13 68.0916C537.96 69.1154 538.031 70.1467 538.334 71.0741C538.404 71.2881 538.287 71.5189 538.073 71.5888C537.858 71.6588 537.628 71.542 537.558 71.3275C537.214 70.276 537.133 69.111 537.324 67.9585C537.327 67.94 537.332 67.922 537.337 67.9049ZM538.535 64.9507C538.547 64.9112 538.565 64.8728 538.59 64.8372C539.251 63.8878 540.097 63.1308 541.103 62.5875C541.302 62.4805 541.549 62.5545 541.656 62.7527C541.763 62.9511 541.69 63.1988 541.491 63.3058C540.598 63.7881 539.847 64.4599 539.26 65.3035C539.131 65.4886 538.877 65.5343 538.692 65.4053C538.543 65.3016 538.484 65.1159 538.535 64.9507ZM551.763 32.3803C551.787 32.3019 551.834 32.2303 551.904 32.1767C552.083 32.0393 552.34 32.073 552.477 32.2518C553.136 33.1104 553.748 34.0198 554.295 34.9551C554.409 35.1497 554.344 35.4001 554.149 35.5136C553.954 35.6277 553.704 35.5618 553.59 35.3674C553.06 34.4616 552.468 33.5807 551.829 32.7492C551.746 32.64 551.725 32.5023 551.763 32.3803ZM539.329 73.7079C539.344 73.6581 539.369 73.6105 539.404 73.5677C539.548 73.3941 539.806 73.3696 539.979 73.5133C540.549 73.9845 541.229 74.3435 542 74.58C542.14 74.6228 542.282 74.662 542.43 74.6971C542.516 74.7178 542.602 74.7363 542.687 74.7532C542.909 74.797 543.053 75.0115 543.009 75.2328C542.965 75.4541 542.751 75.5978 542.53 75.5545C542.433 75.5355 542.336 75.5148 542.24 75.4914C542.076 75.4522 541.916 75.4086 541.761 75.3607C540.886 75.0923 540.112 74.6824 539.459 74.1426C539.328 74.034 539.282 73.8612 539.329 73.7079ZM543.977 61.9712C544.025 61.8136 544.167 61.6946 544.341 61.6835C545.385 61.6157 546.499 61.7295 547.65 62.0218C547.868 62.0771 548 62.2992 547.945 62.518C547.888 62.7331 547.667 62.8689 547.448 62.8131C546.38 62.542 545.352 62.4361 544.393 62.4982C544.168 62.5129 543.974 62.3422 543.96 62.1171C543.956 62.0665 543.963 62.0172 543.977 61.9712ZM554.999 37.9022C555.033 37.7919 555.113 37.6967 555.227 37.6471C555.434 37.5573 555.675 37.6526 555.764 37.8594C555.91 38.1951 556.052 38.5421 556.188 38.8905C556.445 39.5509 556.683 40.2306 556.895 40.9111C556.962 41.1267 556.842 41.3553 556.627 41.4223C556.411 41.4895 556.182 41.3695 556.115 41.1541C555.908 40.4913 555.677 39.8294 555.427 39.1864C555.295 38.8475 555.156 38.5103 555.015 38.1839C554.975 38.0914 554.972 37.9917 554.999 37.9022ZM545.393 74.8735C545.432 74.7458 545.533 74.6399 545.671 74.6005C546.585 74.3381 547.507 73.8802 548.411 73.2395C548.595 73.1091 548.85 73.1524 548.98 73.3361C549.11 73.5201 549.067 73.7752 548.883 73.9053C547.903 74.5996 546.898 75.0972 545.896 75.3849C545.679 75.4473 545.453 75.3218 545.391 75.1051C545.368 75.0265 545.371 74.9467 545.393 74.8735ZM550.162 63.4266C550.168 63.406 550.176 63.3858 550.185 63.3662C550.285 63.1637 550.53 63.0801 550.732 63.1795C551.65 63.6305 552.599 64.1872 553.551 64.8342C553.737 64.9613 553.784 65.2161 553.659 65.4015C553.532 65.5879 553.278 65.6364 553.091 65.5095C552.171 64.8835 551.257 64.3464 550.372 63.9125C550.19 63.8227 550.104 63.615 550.162 63.4266ZM556.915 44.0237C556.957 43.8854 557.072 43.7738 557.224 43.743C557.445 43.6979 557.66 43.8405 557.706 44.0615C557.92 45.113 558.087 46.1939 558.2 47.2748C558.224 47.4986 558.061 47.7 557.837 47.7237C557.613 47.7471 557.412 47.5846 557.388 47.3603C557.277 46.3055 557.115 45.2505 556.905 44.2248C556.891 44.1554 556.895 44.0866 556.915 44.0237ZM550.638 71.3047C550.656 71.2491 550.684 71.1966 550.726 71.1509C551.393 70.4116 552.037 69.5705 552.638 68.651C552.762 68.4623 553.015 68.4095 553.203 68.5328C553.392 68.6564 553.445 68.9098 553.321 69.0982C552.697 70.0528 552.028 70.9277 551.331 71.6983C551.18 71.8657 550.922 71.8787 550.755 71.7277C550.634 71.6177 550.593 71.4514 550.638 71.3047ZM557.589 50.4043C557.64 50.2391 557.793 50.118 557.975 50.1161C558.2 50.1133 558.385 50.2941 558.388 50.5197C558.4 51.5947 558.363 52.6873 558.277 53.7665C558.259 53.9903 558.063 54.159 557.838 54.1414C557.613 54.1237 557.446 53.9269 557.464 53.702C557.547 52.647 557.583 51.5794 557.571 50.529C557.571 50.4854 557.577 50.4435 557.589 50.4043ZM554.175 65.9614C554.182 65.9407 554.19 65.9205 554.2 65.9004C554.655 64.9752 555.074 63.9942 555.446 62.9851C555.524 62.7736 555.759 62.665 555.971 62.7432C556.182 62.821 556.288 63.0502 556.213 63.2674C555.831 64.3031 555.4 65.3103 554.932 66.2608C554.833 66.4633 554.588 66.5463 554.386 66.447C554.203 66.3572 554.117 66.1497 554.175 65.9614ZM557.084 56.801C557.143 56.6078 557.338 56.4842 557.542 56.5188C557.765 56.5563 557.915 56.7673 557.877 56.9897C557.695 58.0583 557.464 59.1272 557.189 60.1662C557.132 60.3886 556.908 60.5141 556.69 60.4567C556.472 60.399 556.342 60.1755 556.4 59.9575C556.668 58.9422 556.894 57.8977 557.072 56.853C557.075 56.835 557.079 56.8176 557.084 56.801ZM555.414 67.076C555.433 67.0129 555.468 66.9535 555.519 66.9043C555.68 66.7467 555.939 66.7491 556.096 66.9103C556.831 67.6599 557.518 68.5258 558.14 69.4828C558.263 69.672 558.209 69.9249 558.02 70.0476C557.831 70.1704 557.578 70.1168 557.455 69.9276C556.863 69.0157 556.209 68.1926 555.513 67.4813C555.404 67.3711 555.372 67.2143 555.414 67.076ZM558.937 72.4071C558.97 72.2987 559.048 72.2048 559.159 72.1545C559.364 72.0616 559.606 72.1528 559.699 72.3586C560.126 73.3037 560.517 74.3283 560.86 75.4037C560.928 75.6185 560.81 75.8485 560.595 75.9168C560.381 75.9854 560.151 75.867 560.082 75.652C559.749 74.6062 559.37 73.6113 558.955 72.6945C558.912 72.6003 558.909 72.4985 558.937 72.4071ZM560.913 78.512C560.955 78.3759 561.066 78.2659 561.215 78.2327C561.435 78.1837 561.653 78.3228 561.702 78.5427C561.927 79.5608 562.124 80.6343 562.285 81.7337C562.317 81.9569 562.163 82.1644 561.94 82.197C561.717 82.2294 561.509 82.0753 561.477 81.8521C561.318 80.772 561.126 79.7181 560.904 78.7197C560.889 78.6486 560.893 78.5773 560.913 78.512ZM561.857 84.867C561.904 84.7124 562.042 84.5946 562.213 84.5799C562.437 84.5605 562.635 84.7274 562.654 84.9522C562.743 85.9961 562.806 87.0833 562.842 88.1832C562.85 88.4086 562.672 88.5975 562.447 88.6046C562.222 88.612 562.033 88.435 562.026 88.2099C561.99 87.1241 561.928 86.0514 561.841 85.0214C561.836 84.9677 561.842 84.9157 561.857 84.867ZM562.073 91.2918C562.125 91.123 562.283 91.0011 562.469 91.0035C562.694 91.0065 562.875 91.1916 562.872 91.417C562.858 92.4726 562.821 93.5592 562.762 94.6472C562.749 94.8731 562.557 95.0449 562.332 95.0326C562.106 95.0204 561.934 94.8277 561.946 94.6025C562.005 93.526 562.042 92.4503 562.056 91.4061C562.056 91.3666 562.062 91.3282 562.073 91.2918ZM548.148 136.706C548.163 136.659 548.186 136.613 548.219 136.572C548.852 135.776 549.482 134.912 550.091 134.002C550.217 133.815 550.47 133.765 550.657 133.89C550.845 134.015 550.894 134.27 550.77 134.456C550.148 135.385 549.505 136.268 548.858 137.08C548.717 137.257 548.461 137.286 548.284 137.145C548.149 137.038 548.1 136.862 548.148 136.706ZM561.726 97.7119C561.782 97.5309 561.958 97.4076 562.154 97.4255C562.379 97.4462 562.544 97.6452 562.523 97.8698C562.425 98.9264 562.305 100.007 562.167 101.08C562.137 101.306 561.933 101.462 561.71 101.433C561.486 101.404 561.328 101.2 561.357 100.976C561.494 99.9118 561.613 98.8415 561.71 97.7944C561.713 97.7658 561.718 97.7383 561.726 97.7119ZM551.734 131.379C551.742 131.35 551.755 131.322 551.77 131.294C552.285 130.402 552.793 129.457 553.283 128.485C553.384 128.283 553.63 128.202 553.831 128.304C554.032 128.405 554.112 128.652 554.012 128.852C553.516 129.837 553 130.796 552.478 131.702C552.366 131.897 552.116 131.965 551.921 131.852C551.752 131.755 551.679 131.557 551.734 131.379ZM560.906 104.092C560.965 103.9 561.158 103.776 561.362 103.809C561.584 103.846 561.735 104.056 561.698 104.278C561.526 105.331 561.332 106.401 561.122 107.457C561.077 107.679 560.864 107.822 560.643 107.778C560.421 107.734 560.278 107.519 560.322 107.298C560.53 106.251 560.722 105.191 560.893 104.146C560.896 104.128 560.9 104.11 560.906 104.092ZM554.63 125.643C554.635 125.628 554.64 125.612 554.647 125.597C555.07 124.643 555.484 123.65 555.878 122.647C555.96 122.437 556.197 122.334 556.407 122.416C556.617 122.498 556.717 122.739 556.638 122.945C556.24 123.96 555.821 124.963 555.393 125.928C555.302 126.134 555.061 126.227 554.855 126.136C554.664 126.051 554.57 125.838 554.63 125.643ZM559.653 110.4C559.716 110.197 559.926 110.074 560.136 110.123C560.356 110.174 560.492 110.394 560.441 110.613C560.197 111.659 559.932 112.713 559.655 113.744C559.596 113.957 559.372 114.09 559.154 114.032C558.937 113.973 558.808 113.749 558.866 113.531C559.142 112.509 559.404 111.465 559.646 110.427C559.648 110.418 559.65 110.409 559.653 110.4ZM556.982 119.663C556.983 119.658 556.985 119.653 556.987 119.648C557.331 118.658 557.665 117.635 557.981 116.608C558.047 116.392 558.276 116.271 558.491 116.337C558.707 116.404 558.828 116.632 558.762 116.848V116.848C558.443 117.885 558.106 118.917 557.758 119.917C557.684 120.129 557.451 120.242 557.238 120.168C557.03 120.096 556.918 119.872 556.982 119.663Z" fill="#A9BCE6"/>
<path d="M529.106 4.90954C529.154 4.75139 529.297 4.63217 529.472 4.62182C529.697 4.60848 529.89 4.77997 529.904 5.00508C529.936 5.55002 529.983 6.0898 530.044 6.60915C530.07 6.83399 529.91 7.03596 529.686 7.06209C529.462 7.08823 529.259 6.9279 529.233 6.70415C529.171 6.16955 529.122 5.61426 529.089 5.0538C529.086 5.00317 529.092 4.95472 529.106 4.90954Z" fill="#A9BCE6"/>
<mask id="mask0_3786_40075" style="mask-type:luminance" maskUnits="userSpaceOnUse" x="392" y="99" width="90" height="45">
<path d="M392.112 143.156H481.466V99.0873L392.112 99.0873V143.156Z" fill="white"/>
</mask>
<g mask="url(#mask0_3786_40075)">
<g opacity="0.31">
<path d="M443.668 143.896C444.935 141.89 446.825 129.191 442.803 120.336C442.803 120.336 443.305 135.736 441.133 139.356C438.961 142.977 438.071 144.499 438.071 144.499L443.668 143.896Z" fill="#6B8AFF"/>
<path d="M440.767 143.196C441.492 141.302 440.241 131.174 434.282 125.737C434.282 125.737 438.461 137.169 437.262 140.553C436.063 143.937 435.581 145.353 435.581 145.353L440.767 143.196Z" fill="#6B8AFF"/>
<path d="M407.672 142.878C406.946 140.984 408.197 130.856 414.157 125.419C414.157 125.419 409.977 136.85 411.176 140.235C412.375 143.619 412.858 145.035 412.858 145.035L407.672 142.878Z" fill="#6B8AFF"/>
<path d="M444.844 144.991C444.185 142.42 443.243 127.143 448.047 115.313C452.851 103.483 453.453 103.895 453.453 103.895C453.453 103.895 448.119 122.675 447.482 128.933C447.078 132.909 447.105 145.239 447.105 145.239L444.844 144.991Z" fill="#6B8AFF"/>
<path d="M421.167 145.149C420.691 143.9 420.011 136.479 423.481 130.732C426.951 124.985 427.385 125.185 427.385 125.185C427.385 125.185 423.533 134.308 423.073 137.349C422.78 139.28 422.8 145.27 422.8 145.27L421.167 145.149Z" fill="#6B8AFF"/>
<path d="M408.265 145.25C407.031 144.737 401.172 140.131 399.382 133.661C397.592 127.19 398.036 127.013 398.036 127.013C398.036 127.013 402.015 136.081 403.908 138.505C405.11 140.045 409.475 144.146 409.475 144.146L408.265 145.25Z" fill="#6B8AFF"/>
<path d="M428.581 143.704C427.314 141.698 425.423 128.998 429.446 120.144C429.446 120.144 428.943 135.544 431.115 139.164C433.287 142.784 434.178 144.307 434.178 144.307L428.581 143.704Z" fill="#6B8AFF"/>
<path d="M431.482 143.003C430.757 141.109 432.007 130.981 437.967 125.544C437.967 125.544 433.787 136.975 434.987 140.36C436.186 143.744 436.668 145.16 436.668 145.16L431.482 143.003Z" fill="#6B8AFF"/>
<path d="M464.576 142.685C465.302 140.791 464.051 130.663 458.091 125.226C458.091 125.226 462.271 136.657 461.072 140.041C459.873 143.425 459.39 144.841 459.39 144.841L464.576 142.685Z" fill="#6B8AFF"/>
<path d="M452.855 144.163C451.874 142.272 450.474 131.033 457.617 122.329C464.76 113.626 465.654 113.929 465.654 113.929C465.654 113.929 457.724 127.745 456.777 132.349C456.175 135.274 456.216 144.345 456.216 144.345L452.855 144.163Z" fill="#6B8AFF"/>
<path d="M427.14 144.798C428.12 142.228 429.521 126.951 422.378 115.121C415.235 103.29 414.34 103.703 414.34 103.703C414.34 103.703 422.271 122.482 423.218 128.741C423.82 132.717 423.778 145.046 423.778 145.046L427.14 144.798Z" fill="#6B8AFF"/>
<path d="M451.081 144.956C451.557 143.707 452.238 136.286 448.768 130.539C445.298 124.792 444.863 124.992 444.863 124.992C444.863 124.992 448.716 134.115 449.176 137.155C449.468 139.087 449.448 145.077 449.448 145.077L451.081 144.956Z" fill="#6B8AFF"/>
<path d="M463.983 145.056C465.218 144.544 471.077 139.938 472.867 133.468C474.657 126.997 474.213 126.819 474.213 126.819C474.213 126.819 470.233 135.888 468.341 138.311C467.139 139.851 462.774 143.953 462.774 143.953L463.983 145.056Z" fill="#6B8AFF"/>
</g>
</g>
<mask id="mask1_3786_40075" style="mask-type:luminance" maskUnits="userSpaceOnUse" x="333" y="99" width="90" height="45">
<path d="M333.198 143.096H422.552V99.0268L333.198 99.0268V143.096Z" fill="white"/>
</mask>
<g mask="url(#mask1_3786_40075)">
<path d="M384.753 143.835C386.021 141.83 387.911 129.13 383.889 120.275C383.889 120.275 384.391 135.676 382.219 139.296C380.047 142.916 379.157 144.439 379.157 144.439L384.753 143.835Z" fill="#14966A"/>
<path d="M381.853 143.135C382.578 141.241 381.328 131.113 375.368 125.676C375.368 125.676 379.548 137.107 378.348 140.491C377.149 143.876 376.667 145.292 376.667 145.292L381.853 143.135Z" fill="#35CB60"/>
<path d="M348.759 142.816C348.033 140.922 349.284 130.793 355.244 125.356C355.244 125.356 351.064 136.788 352.263 140.172C353.463 143.556 353.945 144.972 353.945 144.972L348.759 142.816Z" fill="#14966A"/>
<path d="M385.931 144.929C385.271 142.359 384.329 127.082 389.134 115.251C393.938 103.421 394.539 103.834 394.539 103.834C394.539 103.834 389.205 122.613 388.568 128.872C388.164 132.848 388.192 145.177 388.192 145.177L385.931 144.929Z" fill="#35CB60"/>
<path d="M362.254 145.088C361.778 143.839 361.098 136.417 364.568 130.671C368.038 124.923 368.472 125.124 368.472 125.124C368.472 125.124 364.619 134.247 364.159 137.287C363.867 139.219 363.887 145.208 363.887 145.208L362.254 145.088Z" fill="#35CB60"/>
<path d="M349.351 145.187C348.117 144.675 342.258 140.069 340.468 133.598C338.678 127.128 339.122 126.95 339.122 126.95C339.122 126.95 343.101 136.019 344.994 138.442C346.196 139.982 350.561 144.084 350.561 144.084L349.351 145.187Z" fill="#14966A"/>
<path d="M369.668 143.642C368.401 141.636 366.51 128.937 370.533 120.082C370.533 120.082 370.03 135.482 372.202 139.103C374.374 142.723 375.265 144.245 375.265 144.245L369.668 143.642Z" fill="#14966A"/>
<path d="M372.568 142.942C371.842 141.048 373.093 130.919 379.053 125.482C379.053 125.482 374.873 136.914 376.072 140.298C377.272 143.682 377.754 145.098 377.754 145.098L372.568 142.942Z" fill="#14966A"/>
<path d="M405.663 142.623C406.388 140.729 405.137 130.601 399.178 125.164C399.178 125.164 403.357 136.595 402.158 139.98C400.959 143.364 400.477 144.78 400.477 144.78L405.663 142.623Z" fill="#35CB60"/>
<path d="M393.941 144.1C392.961 142.209 391.56 130.97 398.703 122.267C405.846 113.563 406.741 113.867 406.741 113.867C406.741 113.867 398.81 127.683 397.863 132.287C397.261 135.212 397.303 144.282 397.303 144.282L393.941 144.1Z" fill="#14966A"/>
<path d="M368.226 144.737C369.207 142.166 370.607 126.889 363.464 115.059C356.321 103.229 355.427 103.641 355.427 103.641C355.427 103.641 363.358 122.421 364.305 128.679C364.906 132.655 364.865 144.985 364.865 144.985L368.226 144.737Z" fill="#14966A"/>
<path d="M392.167 144.895C392.643 143.646 393.324 136.224 389.854 130.477C386.384 124.73 385.949 124.931 385.949 124.931C385.949 124.931 389.802 134.054 390.262 137.094C390.554 139.025 390.534 145.015 390.534 145.015L392.167 144.895Z" fill="#14966A"/>
<path d="M405.07 144.995C406.304 144.482 412.163 139.877 413.953 133.406C415.743 126.936 415.299 126.758 415.299 126.758C415.299 126.758 411.32 135.826 409.427 138.25C408.225 139.79 403.86 143.891 403.86 143.891L405.07 144.995Z" fill="#35CB60"/>
</g>
<path opacity="0.42" d="M522.535 115.782L530.624 115.629V161.205L522.535 160.431V115.782ZM535.018 161.815L543.639 163.4V58.2598L535.018 58.8823V161.815ZM548.327 85.2688V164.722L557.535 165.742V84.5287L548.327 85.2688Z" fill="url(#paint1_linear_3786_40075)"/>
<g opacity="0.18">
<path d="M554.344 87.7824C558.783 70.0241 530.099 60.168 484.217 40.6186C438.336 21.0691 370.511 11.4937 339.391 40.6186C308.272 69.7434 352.668 130.8 398.45 139.956C429.807 146.228 484.935 142.708 503.962 133.345C531.562 119.764 550.354 103.741 554.344 87.7824Z" fill="#6B8AFF"/>
</g>
<g opacity="0.12">
<path d="M332.141 124.132C327.701 106.373 364.857 51.5189 410.738 31.9692C456.62 12.4196 524.444 2.84437 555.564 31.9692C586.684 61.0941 528.434 138.095 493.325 134.904C458.215 131.712 389.194 124.53 368.447 128.919C347.701 133.308 336.131 140.09 332.141 124.132Z" fill="#6B8AFF"/>
<path d="M337.925 144.5C325.027 160.401 126.242 152.093 59.8687 134.5C-6.50503 116.907 -15.8374 79.5585 -19.1821 37.0006C-22.5265 -5.55705 105.151 -27.5778 138.094 -0.999994C171.037 25.5778 242.804 85.1333 268.44 96.3045C294.076 107.476 349.516 130.211 337.925 144.5Z" fill="#08133B"/>
<path d="M343.477 -2.16115C330.579 -18.0617 131.794 -9.75364 65.4204 7.83887C-0.953274 25.4314 -10.2856 62.7804 -13.6303 105.338C-16.9747 147.896 110.703 169.917 143.646 143.339C176.589 116.761 248.356 57.2055 273.992 46.0343C299.628 34.8633 355.068 12.1283 343.477 -2.16115Z" fill="#102D9D"/>
</g>
<path d="M347.005 37.28V115.037C347.005 120.01 351.171 123.937 356.268 123.808L403.263 122.632H403.264V158.87L389.928 158.248C385.514 158.134 381.949 161.766 381.949 166.361L445.242 166.419C445.242 161.687 441.472 157.929 436.84 157.807L425.045 157.497V122.087L465.986 121.061C469.992 120.958 473.216 117.346 473.216 112.991V44.87C473.216 40.5151 469.991 36.7617 465.986 36.4854L356.269 28.9194C351.171 28.5677 347.005 32.3104 347.005 37.28ZM409.592 122.472L419.494 122.224V140.406C419.494 143.212 417.296 145.596 414.569 145.732C411.827 145.868 409.592 143.68 409.592 140.844V122.472Z" fill="#573779"/>
<path d="M405.45 115.554V159.789L427.203 158.378V115.145L405.45 115.554ZM411.77 121.531C411.77 118.589 414.002 116.16 416.741 116.106C419.464 116.053 421.66 118.37 421.66 121.282V140.47C421.66 143.382 419.464 145.854 416.741 145.994C414.002 146.133 411.77 143.862 411.77 140.92V121.531Z" fill="#7B4EAB"/>
<path d="M349.264 32.3062V112.985C349.264 118.144 353.424 122.222 358.515 122.092L405.45 120.909L411.771 120.748L421.662 120.499L427.203 120.36L468.094 119.328C472.094 119.225 475.315 115.48 475.315 110.961V40.2789C475.315 35.7604 472.094 31.8633 468.094 31.5737L358.516 23.6385C353.424 23.2697 349.264 27.1499 349.264 32.3062ZM352.168 35.5225C352.168 30.3817 356.307 26.4977 361.365 26.8499L465.814 34.1011C469.839 34.3801 473.074 38.2802 473.074 42.8098V108.29L352.168 109.867V35.5225Z" fill="#7B4EAB"/>
<path d="M352.167 35.5226V109.868L473.073 108.291V42.8102C473.073 38.2805 469.838 34.3802 465.813 34.1014L361.365 26.8503C356.307 26.4981 352.167 30.3818 352.167 35.5226Z" fill="white"/>
<g opacity="0.34">
<path d="M414.613 89.864H414.66C423.495 89.8341 430.774 81.5183 430.924 71.3054L430.926 71.1012H430.924C430.954 65.7171 428.975 60.6106 425.488 57.0775C422.6 54.1486 418.876 52.5263 415.008 52.5127H414.943C406.047 52.5127 398.741 60.8774 398.649 71.1938C398.6 76.6351 400.595 81.7933 404.125 85.3455C407.024 88.258 410.748 89.864 414.613 89.864Z" fill="#6B8AFF"/>
<path d="M425.358 99.3792C424.914 98.3459 423.999 97.6344 422.931 97.6309C421.78 97.6268 420.786 98.4426 420.36 99.6043L369.524 99.5344C369.261 99.5341 369.047 99.9209 369.047 100.398L369.046 102.048C369.046 102.524 369.26 102.911 369.523 102.91L420.716 102.808C421.215 103.549 421.992 104.025 422.87 104.022C423.65 104.019 424.356 103.638 424.861 103.031L425.358 99.3792Z" fill="#6B8AFF"/>
<path d="M371.268 39.9506C371.269 38.8443 370.463 37.8965 369.465 37.8334C368.466 37.7702 367.655 38.6192 367.655 39.7293C367.655 40.839 368.466 41.7863 369.464 41.8456C370.461 41.9047 371.268 41.0565 371.268 39.9506Z" fill="#6B8AFF"/>
<path d="M377.637 42.3299C378.617 42.3879 379.412 41.5462 379.415 40.4495C379.417 39.3526 378.625 38.4129 377.644 38.3509C376.661 38.2888 375.861 39.131 375.86 40.2321C375.859 41.3326 376.655 42.2716 377.637 42.3299Z" fill="#6B8AFF"/>
<path d="M385.678 42.806C386.642 42.8631 387.425 42.028 387.429 40.9403C387.433 39.8523 386.655 38.9206 385.69 38.8596C384.722 38.7984 383.935 39.6343 383.932 40.7264C383.929 41.8179 384.711 42.7488 385.678 42.806Z" fill="#6B8AFF"/>
</g>
<path d="M431.956 68.988L431.953 69.1921C431.804 79.4051 424.525 87.7208 415.689 87.7507H415.643C411.778 87.7507 408.054 86.1447 405.155 83.2322C401.625 79.68 399.63 74.5218 399.679 69.0805C399.771 58.7641 407.077 50.3994 415.973 50.3994H416.038C419.906 50.413 423.63 52.0353 426.518 54.9642C430.004 58.4974 431.983 63.6038 431.953 68.988H431.956Z" fill="#A788C7"/>
<path d="M412.962 58.1427L425.675 69.1385C426.315 69.6927 426.258 70.7455 425.563 71.1949L412.69 79.5156C411.875 80.0425 410.815 79.4129 410.823 78.4042L410.978 59.0771C410.987 58.0063 412.164 57.4529 412.962 58.1427Z" fill="white"/>
<path d="M424.251 99.6434L424.236 101.203C424.231 101.654 424.037 102.019 423.801 102.02L370.02 102.128C369.757 102.128 369.543 101.742 369.543 101.266L369.543 99.6151C369.543 99.1385 369.757 98.7517 370.021 98.752L423.832 98.826C424.068 98.8265 424.255 99.1926 424.251 99.6434Z" fill="#A788C7"/>
<path d="M455.837 102.18L423.126 102.254L423.161 98.5928L455.891 98.6458C456.355 98.6467 456.726 99.1015 456.717 99.6598L456.694 101.166C456.686 101.724 456.301 102.179 455.837 102.18ZM423.53 101.788L455.844 101.731C456.102 101.731 456.317 101.478 456.322 101.166L456.344 99.6593C456.349 99.3481 456.142 99.0947 455.884 99.0944L423.556 99.058L423.53 101.788Z" fill="#A9BCE6"/>
<path d="M426.142 100.046C426.124 101.805 424.884 103.235 423.367 103.24C421.845 103.245 420.62 101.815 420.636 100.046C420.652 98.275 421.904 96.8432 423.428 96.8486C424.946 96.8541 426.159 98.2861 426.142 100.046Z" fill="#A788C7"/>
<path d="M371.765 39.1693C371.765 40.275 370.958 41.1234 369.961 41.0644C368.963 41.0053 368.152 40.058 368.152 38.948C368.152 37.838 368.963 36.989 369.963 37.0521C370.96 37.1153 371.766 38.0631 371.765 39.1693Z" fill="#A788C7"/>
<path d="M379.912 39.6683C379.91 40.765 379.115 41.6066 378.135 41.5486C377.152 41.4904 376.356 40.5513 376.357 39.4508C376.359 38.3498 377.159 37.5076 378.141 37.5696C379.122 37.6314 379.914 38.5713 379.912 39.6683Z" fill="#A788C7"/>
<path d="M387.925 40.159C387.922 41.2467 387.138 42.0819 386.174 42.0247C385.208 41.9675 384.425 41.0366 384.428 39.9451C384.431 38.853 385.219 38.0174 386.186 38.0783C387.151 38.1393 387.929 39.071 387.925 40.159Z" fill="#A788C7"/>
<path d="M424.266 21.499C423.381 21.6653 422.799 22.5175 422.965 23.4025C423.131 24.2874 423.983 24.8696 424.868 24.7033C425.753 24.537 426.336 23.6847 426.169 22.7998C426.003 21.9149 425.151 21.3326 424.266 21.499ZM435.816 48.7565C434.931 48.9229 434.349 49.7751 434.515 50.66C434.682 51.545 435.534 52.1272 436.419 51.9609C437.304 51.7946 437.886 50.9423 437.72 50.0574C437.553 49.1725 436.701 48.5902 435.816 48.7565ZM449.275 3.60453C448.39 3.77084 447.808 4.6231 447.974 5.50803C448.14 6.39295 448.992 6.97518 449.877 6.80887C450.762 6.64256 451.344 5.7903 451.178 4.90537C451.012 4.02045 450.159 3.43822 449.275 3.60453Z" fill="white"/>
<path d="M476.742 14.6234L475.163 13.6653L473.479 14.4228L473.902 12.6252L472.661 11.2574L474.501 11.1047L475.419 9.50195L476.133 11.2048L477.941 11.5821L476.542 12.7874L476.742 14.6234Z" fill="white"/>
<path d="M440.863 19.6142L438.515 18.1895L436.01 19.3159L436.64 16.6429L434.794 14.609L437.531 14.3814L438.896 11.998L439.958 14.5306L442.646 15.0916L440.565 16.8843L440.863 19.6142Z" fill="white"/>
<path d="M521.948 51.1068L545.178 54.3558C547.179 54.6356 548.852 53.172 548.852 51.078V26.3527C548.852 24.2586 547.178 22.783 545.178 23.0484L521.948 26.1308C520.714 26.2947 519.737 27.705 519.737 29.2848V47.9373C519.737 49.5169 520.714 50.934 521.948 51.1068Z" fill="#573779"/>
<path d="M520.966 50.32L543.684 53.3346C545.62 53.5915 547.238 52.1426 547.238 50.0902V25.6529C547.238 23.6008 545.62 22.1633 543.684 22.4341L520.966 25.6115C519.766 25.7795 518.815 27.1715 518.815 28.725V47.222C518.815 48.7752 519.766 50.1607 520.966 50.32Z" fill="#9571BC"/>
<path d="M535.664 38.765L533.857 47.4395C533.695 48.2139 534.281 49.006 534.975 48.9445C535.289 48.9167 535.558 48.7117 535.698 48.3938L539.429 39.8859C539.749 39.1559 539.302 38.2612 538.574 38.1678L536.714 37.9291C536.222 37.8662 535.778 38.2209 535.664 38.765Z" fill="white"/>
<path d="M540.604 36.6767C540.457 38.038 539.765 38.93 539.494 39.2471C537.181 38.9804 534.932 38.7174 532.748 38.4659L532.621 38.4526C532.554 38.4847 532.484 38.5163 532.417 38.5481C532.417 38.5481 532.414 38.5478 532.413 38.5514C532.301 38.6034 532.192 38.6553 532.079 38.7071C530.832 39.286 529.607 39.8593 528.399 40.4195L528.086 40.5643C527.721 40.7352 527.359 40.9045 526.998 41.0725C526.519 41.2957 525.964 41.002 525.821 40.4505C525.37 38.6973 524.943 35.8884 525.746 32.708C525.995 31.7197 526.324 30.8476 526.671 30.0974C526.909 29.5805 527.502 29.3864 527.935 29.6844L528.978 30.4022L529.268 30.602L532.578 32.8776L532.879 33.0869L532.969 33.1466L533.063 33.1531L533.42 33.1855L539.967 33.7598C540.175 34.1069 540.762 35.194 540.604 36.6767Z" fill="white"/>
<path d="M532.413 38.5514C532.301 38.6034 532.191 38.6554 532.079 38.7071C532.073 37.7185 532.113 36.7309 532.197 35.7502C532.282 34.7899 532.407 33.8312 532.578 32.8779L532.88 33.0873C532.727 33.9798 532.61 34.8805 532.53 35.7793C532.452 36.6991 532.411 37.6248 532.413 38.5514Z" fill="#9571BC"/>
<path d="M527.791 40.6955C527.326 38.9177 526.889 36.0708 527.713 32.8488C527.969 31.8473 528.307 30.9638 528.663 30.2035C528.665 30.1989 528.668 30.1946 528.67 30.1899L527.935 29.6844C527.502 29.3864 526.909 29.5805 526.671 30.0974C526.324 30.8476 525.995 31.72 525.746 32.708C524.943 35.8884 525.37 38.6973 525.821 40.4505C525.964 41.002 526.519 41.2957 526.998 41.0725C527.262 40.9497 527.527 40.8259 527.792 40.7015C527.792 40.6996 527.791 40.6977 527.791 40.6955Z" fill="white"/>
<path d="M502.203 20.2693C500.616 19.601 500.333 19.0112 499.58 17.4697C498.168 14.5792 495.163 14.5656 492.764 14.8612C491.938 14.9627 491.191 15.4467 490.513 15.7791C490.266 15.9002 490.036 16.0347 489.823 16.1743C488.823 16.8262 488.229 17.5789 488.229 17.5789C487.539 18.7216 487.135 19.6579 486.982 20.2791C486.86 20.7791 486.685 21.5181 486.775 22.4937C486.867 23.4875 487.819 24.0961 488.056 24.5532C488.336 24.4827 487.98 24.5711 488.244 24.5077C487.805 27.2705 484.91 30.6292 486.32 33.045C487.978 35.884 486.039 38.4041 485.594 41.2077C486.113 42.2859 487.013 43.7465 488.572 44.9039C493.701 48.7134 503.097 47.1109 506.025 41.7211C506.453 40.9323 507.811 41.515 508.902 39.9793C509.324 39.3873 509.521 37.67 509.258 37.0191C508.088 34.1218 505.754 34.8434 506.329 32.7965C506.737 31.3432 506.918 29.0763 504.878 27.9883C502.737 26.8467 503.495 25.8894 503.835 24.5189C504.47 21.9588 503.206 20.6915 502.203 20.2693Z" fill="#292466"/>
<path d="M501.567 37.9745C501.509 37.9745 501.45 37.956 501.401 37.9174C501.318 37.8537 499.395 36.3402 499.762 34.8921C500.058 33.7206 500.214 32.5629 498.884 31.2789C497.922 30.351 498.218 29.3177 498.478 28.4059C498.643 27.8245 498.8 27.2751 498.678 26.7474C498.645 26.6009 498.736 26.4547 498.882 26.421C499.029 26.3875 499.175 26.4787 499.209 26.6251C499.362 27.2896 499.179 27.9331 499.001 28.5553C498.751 29.4304 498.535 30.1863 499.261 30.8872C500.8 32.3726 500.613 33.7459 500.289 35.0255C500.057 35.9439 501.254 37.1138 501.734 37.4873C501.853 37.5796 501.874 37.7505 501.782 37.8692C501.729 37.9383 501.649 37.9745 501.567 37.9745Z" fill="#2658A0"/>
<path d="M505.67 37.8175C505.614 37.8175 505.557 37.8001 505.508 37.7642C505.42 37.6989 503.345 36.1424 503.513 34.3391C503.658 32.7897 503.662 31.2817 502.148 29.8674C501.105 28.8929 501.252 27.6427 501.394 26.4339C501.481 25.6959 501.57 24.9327 501.372 24.2625C501.329 24.1185 501.412 23.9669 501.556 23.9242C501.7 23.882 501.851 23.9639 501.894 24.1079C502.124 24.8853 502.028 25.7049 501.935 26.4973C501.803 27.6212 501.678 28.683 502.52 29.4697C504.212 31.0512 504.206 32.7674 504.055 34.3897C503.915 35.8868 505.813 37.3126 505.832 37.3268C505.952 37.4163 505.978 37.5867 505.889 37.7073C505.836 37.7794 505.753 37.8175 505.67 37.8175Z" fill="#2658A0"/>
<path d="M470.249 54.5044C469.674 54.8531 466.024 56.9999 463.3 55.5314C462.695 55.2045 462.149 54.7077 461.675 54.1557C461.04 53.4172 460.535 52.5824 460.186 51.9357C460.006 51.6014 459.867 51.3188 459.773 51.1242C459.761 51.0959 459.746 51.0676 459.732 51.0382C459.299 50.1367 459.18 49.6064 458.535 48.682C458.526 48.6698 458.518 48.6573 458.508 48.645C458.373 48.4529 458.236 48.2737 458.095 48.1014C457.854 47.8061 457.603 47.5339 457.324 47.2535C456.991 46.9209 456.62 46.5804 456.186 46.1846C455.922 45.944 455.687 45.7368 455.478 45.5577C455.421 45.509 455.367 45.4627 455.315 45.4184C455.344 45.3185 455.379 45.2175 455.422 45.1173C455.647 44.5895 456.024 44.2038 456.412 43.9243C456.774 43.663 457.144 43.4958 457.41 43.394C458.308 42.7522 459.206 42.109 460.103 41.4671C461.281 41.4374 462.459 41.4091 463.637 41.3795C463.777 41.5403 463.919 41.7045 464.062 41.8721C464.161 41.9862 464.259 42.1011 464.36 42.2184C464.356 42.2127 464.351 42.205 464.345 42.1936C464.249 42.0289 464.15 41.8656 464.05 41.7047C463.809 41.3139 463.558 40.9292 463.298 40.5495C463.296 40.5463 463.294 40.5438 463.292 40.5405C462.938 40.0247 462.572 39.5152 462.203 39.0127C460.125 36.1845 460.087 35.7264 460.179 35.3614C460.285 34.9408 460.619 34.4313 461.077 34.2691C462.956 33.6076 467.095 38.7116 468.996 43.5203C469.826 45.6236 470.9 49.3729 470.249 54.5044Z" fill="#F8AE8E"/>
<path d="M463.19 55.7365C462.615 55.4257 462.046 54.9447 461.5 54.3077C460.968 53.6906 460.458 52.9296 459.981 52.046C459.799 51.7079 459.659 51.4224 459.56 51.2174L459.523 51.139C459.391 50.8638 459.287 50.6227 459.189 50.3943C458.97 49.8828 458.781 49.4411 458.344 48.8153L458.535 48.6824L458.318 48.7791C458.191 48.5981 458.059 48.4247 457.915 48.2488C457.696 47.9793 457.455 47.7156 457.16 47.4186C456.827 47.0857 456.451 46.7408 456.029 46.357C455.767 46.1183 455.535 45.9128 455.327 45.7348L455.165 45.5965C455.095 45.5372 455.066 45.4424 455.092 45.3548C455.124 45.2437 455.163 45.1335 455.208 45.0271C455.422 44.527 455.781 44.0926 456.276 43.7371C456.575 43.521 456.919 43.3367 457.298 43.1889L459.968 41.2789C460.006 41.2519 460.051 41.2367 460.097 41.2356L463.422 41.1534C463.32 40.9977 463.213 40.8382 463.1 40.6732C462.782 40.2088 462.427 39.711 462.016 39.1516C459.915 36.2927 459.836 35.7728 459.954 35.306C460.072 34.8383 460.449 34.2463 461 34.0514C463.094 33.3099 467.335 38.6859 469.212 43.4363C470.555 46.841 470.982 50.575 470.479 54.5345C470.47 54.6047 470.43 54.667 470.369 54.7041C469.634 55.1502 467.568 56.2752 465.458 56.2752C464.687 56.2746 463.91 56.1247 463.19 55.7365ZM468.78 43.6064C466.867 38.7648 462.805 33.9093 461.155 34.4891C460.783 34.6209 460.496 35.0564 460.405 35.4192C460.333 35.7028 460.427 36.2034 462.391 38.8756C462.805 39.4393 463.163 39.941 463.49 40.419C463.769 40.8265 464.016 41.2073 464.247 41.5818C464.349 41.7446 464.448 41.9101 464.553 42.0898C464.621 42.1921 464.598 42.3298 464.5 42.4039C464.402 42.4782 464.263 42.4632 464.183 42.3698L463.886 42.0236C463.767 41.8851 463.65 41.7487 463.533 41.615L460.181 41.6981L457.545 43.5836C457.529 43.595 457.511 43.6045 457.493 43.6113C457.14 43.7466 456.822 43.9154 456.548 44.1136C456.123 44.4195 455.816 44.7881 455.636 45.2086C455.617 45.253 455.6 45.2979 455.584 45.3425L455.63 45.3815C455.841 45.5619 456.077 45.7704 456.342 46.013C456.768 46.4011 457.148 46.7498 457.489 47.0901C457.796 47.3985 458.046 47.6734 458.275 47.9546C458.426 48.1389 458.565 48.3215 458.69 48.5003C458.703 48.5172 458.715 48.5341 458.726 48.5496C459.189 49.2143 459.387 49.6762 459.617 50.2111C459.712 50.4338 459.813 50.6695 459.943 50.9409L459.983 51.0236C460.076 51.2161 460.213 51.4956 460.391 51.8258C460.851 52.6797 461.343 53.4127 461.852 54.0048C462.361 54.5987 462.886 55.0435 463.411 55.3271C465.808 56.6182 468.973 54.9909 470.032 54.3633C470.503 50.5241 470.082 46.9055 468.78 43.6064Z" fill="#F8AE8E"/>
<path d="M464.014 49.7258C463.723 51.3438 463.726 51.4587 462.46 51.3854C461.194 51.3122 461.071 44.0782 461.071 44.0782C461.071 44.0782 461.049 50.3979 460.739 51.4421C460.558 52.0501 460.287 52.2714 459.927 52.1743C459.67 52.1046 459.365 51.871 459.018 51.4987C458.675 51.132 458.424 50.0408 458.249 48.8836C457.999 47.2317 457.899 45.4463 457.899 45.4463C457.899 45.4463 457.945 46.8234 457.836 48.3401C457.705 50.1872 457.346 52.2429 456.401 52.2739C454.958 52.3213 455.127 47.3928 455.219 45.7961C455.238 45.4877 455.252 45.3034 455.252 45.3034C455.232 45.2 455.101 44.4707 455.589 43.9135C455.675 43.8155 456.05 43.3874 456.607 43.4206C456.878 43.4366 457.082 43.5561 457.188 43.6313C457.179 43.4685 457.169 42.8966 457.568 42.3549C457.641 42.2553 458.006 41.7613 458.616 41.6311C459.164 41.5144 459.844 41.7057 459.844 41.7057C459.875 41.5514 460.022 40.8959 460.61 40.5317C461.375 40.0584 462.248 40.4713 462.488 40.5848C463.41 41.0209 463.734 41.9077 463.803 42.111C463.945 44.017 464.242 48.4661 464.014 49.7258Z" fill="#F8AE8E"/>
<path d="M455.758 52.2292C454.818 51.2667 454.871 47.7768 454.987 45.7822C455.001 45.5448 455.013 45.3804 455.018 45.3156C454.981 45.1011 454.898 44.3487 455.414 43.7602C455.857 43.2542 456.316 43.172 456.62 43.1881C456.738 43.1952 456.856 43.2188 456.969 43.2586C457.006 42.9594 457.111 42.5822 457.381 42.2169C457.696 41.7879 458.117 41.4994 458.567 41.4033C458.964 41.3189 459.411 41.3766 459.676 41.4283C459.776 41.1066 460.001 40.6348 460.488 40.3333C461.066 39.9748 461.773 39.9884 462.587 40.3741C463.527 40.8186 463.905 41.6845 464.023 42.0361C464.029 42.0546 464.033 42.0737 464.035 42.093C464.209 44.4263 464.467 48.5257 464.243 49.7663L464.227 49.8556C463.943 51.4377 463.856 51.6954 462.447 51.617C461.82 51.5808 461.437 50.3744 461.202 48.907C461.151 50.0884 461.075 51.1249 460.962 51.5076C460.691 52.4149 460.217 52.4916 459.866 52.398C459.572 52.318 459.239 52.0757 458.848 51.6568C458.515 51.3016 458.245 50.4085 458.02 48.9269C457.792 51.3056 457.263 52.4777 456.408 52.5063C456.398 52.5066 456.389 52.5066 456.379 52.5066C456.146 52.5069 455.937 52.4135 455.758 52.2292ZM458.131 45.4332C458.132 45.4512 458.233 47.2275 458.479 48.8488C458.751 50.6472 459.039 51.1815 459.187 51.3399C459.594 51.7746 459.847 51.9113 459.987 51.9497C460.086 51.9772 460.319 52.0395 460.517 51.3759C460.755 50.5753 460.832 46.252 460.839 44.0774C460.839 43.95 460.942 43.8468 461.07 43.8457C461.071 43.8457 461.071 43.8457 461.072 43.8457C461.198 43.8457 461.302 43.9475 461.304 44.0741C461.362 47.4633 461.846 51.1167 462.474 51.1532C463.511 51.2136 463.511 51.2131 463.77 49.7737L463.786 49.6844C464.008 48.4562 463.713 44.0363 463.574 42.1581C463.465 41.8475 463.145 41.1526 462.389 40.7949C461.726 40.4811 461.169 40.459 460.733 40.7293C460.262 41.0211 460.114 41.5407 460.073 41.7509C460.06 41.8143 460.022 41.8698 459.966 41.9038C459.911 41.9376 459.844 41.9471 459.782 41.9294C459.775 41.9278 459.149 41.7558 458.665 41.8587C458.326 41.9311 458.003 42.1562 457.755 42.4934C457.423 42.9442 457.411 43.4309 457.421 43.6192C457.425 43.708 457.379 43.7921 457.301 43.8351C457.223 43.8784 457.127 43.8732 457.055 43.8218C456.911 43.7208 456.752 43.6625 456.593 43.6533C456.304 43.6345 456.017 43.7793 455.764 44.0673C455.361 44.5273 455.457 45.1403 455.481 45.2587C455.485 45.2797 455.486 45.3012 455.484 45.3224C455.484 45.3235 455.47 45.5061 455.451 45.8099C455.308 48.2927 455.401 51.1976 456.091 51.905C456.186 52.0022 456.283 52.0479 456.393 52.0422C456.679 52.033 457.368 51.6519 457.605 48.324C457.711 46.8377 457.668 45.468 457.668 45.4544C457.663 45.3273 457.762 45.2201 457.89 45.2146C457.893 45.2143 457.897 45.2143 457.9 45.2143C458.022 45.2138 458.124 45.3096 458.131 45.4332Z" fill="#E7A182"/>
<path d="M466.579 44.5618C467.554 46.7789 468.82 47.4654 469.219 48.5855L467.109 53.9361C464.914 53.3563 462.717 51.0728 463.852 48.2488C464.291 47.2574 464.39 45.3615 464.401 44.4815C464.412 43.6015 465.604 42.345 466.579 44.5618Z" fill="#F8AE8E"/>
<path d="M467.109 54.1692C467.212 54.1692 467.307 54.1006 467.334 53.9961C467.367 53.872 467.293 53.7449 467.169 53.7119C465.869 53.3687 464.714 52.4617 464.154 51.3454C463.683 50.4082 463.653 49.3676 464.068 48.336C464.563 47.2189 464.626 45.1055 464.633 44.4846C464.638 44.1174 464.916 43.6345 465.267 43.5632C465.628 43.4892 466.028 43.888 466.366 44.6558C466.927 45.9306 467.584 46.715 468.113 47.3452C468.519 47.8294 468.84 48.2119 469 48.664C469.043 48.7848 469.177 48.8485 469.297 48.8047C469.419 48.7617 469.482 48.6289 469.438 48.5078C469.249 47.9772 468.888 47.5458 468.469 47.0466C467.96 46.4388 467.325 45.6823 466.792 44.4686C466.197 43.1179 465.523 43.0376 465.174 43.1073C464.581 43.2282 464.175 43.9141 464.168 44.4784C464.163 44.9046 464.113 47.0844 463.639 48.155C463.17 49.3214 463.206 50.494 463.738 51.5539C464.356 52.7856 465.625 53.7849 467.05 54.1613C467.07 54.1668 467.09 54.1692 467.109 54.1692Z" fill="#E7A182"/>
<path d="M491.183 35.9648C490.884 36.8743 490.45 38.1822 489.92 39.7541C489.92 39.7541 488.212 44.825 486.705 49.0552C482.013 62.2283 479.666 68.8148 475.844 69.8758C470.666 71.3122 464.188 63.9184 460.91 59.5768C460.838 59.4827 460.768 59.3896 460.7 59.2978C459.696 57.9532 459.03 56.9485 458.849 56.6706C460.226 55.7141 461.831 54.7265 463.672 53.7999C466.942 52.1523 469.998 51.1784 472.514 50.5847C472.956 51.2437 473.398 51.9019 473.84 52.5609C473.906 52.6608 473.973 52.7596 474.04 52.8595C474.29 53.2327 474.54 53.6059 474.791 53.979C474.896 54.1364 475.002 54.2948 475.107 54.4521C475.11 54.4429 475.112 54.4347 475.116 54.4257C475.274 53.8721 475.478 53.2041 475.741 52.4542C475.763 52.3946 475.784 52.335 475.806 52.2751C477.245 48.2457 480.341 41.9739 486.82 38.0319C488.305 37.128 489.78 36.4608 491.183 35.9648Z" fill="#70479C"/>
<path d="M481.004 123.255C481.196 131.35 481.383 143.168 481.266 157.759C485.721 157.935 490.175 158.111 494.63 158.287C495.58 110.783 496.366 87.0306 496.989 87.0347C497.403 87.0374 498.334 96.7329 498.603 117.789C498.739 128.417 506.347 140.783 513.315 155.883L527.641 151.548C516.717 128.18 513.961 125.683 513.971 116.345C513.983 105.844 513.205 101.227 513.125 97.6323C513.076 95.416 513.207 87.1406 511.859 76.2809C511.795 75.7678 511.738 75.3048 511.686 74.8872C511.204 71.0021 511.204 71.0021 511.204 71.0021L482.258 69.8213C482.149 70.8567 482.03 72.0332 481.907 73.3397C481.542 77.2257 481.144 82.2554 480.874 88.0897C480.252 101.468 480.7 110.46 481.004 123.255Z" fill="#0053CA"/>
<path d="M513.125 97.6321C513.076 95.4159 513.207 87.1404 511.859 76.2807C511.795 75.7676 511.737 75.3046 511.686 74.8871C511.203 71.002 511.203 71.002 511.203 71.002L508.499 71.5474C510.065 83.2172 509.155 92.8569 509.677 110.96C509.878 117.899 511.792 124.684 515.257 130.7C519.608 138.253 525.329 147.231 527.397 151.621L527.641 151.547C516.717 128.18 513.961 125.683 513.971 116.344C513.983 105.844 513.205 101.227 513.125 97.6321Z" fill="#1B468C"/>
<path d="M494.975 93.7275C494.843 96.904 493.822 148.88 494.63 158.287C495.198 136.681 496.568 87.0324 496.988 87.0352C496.988 87.0352 495.167 89.1281 494.975 93.7275Z" fill="#1B468C"/>
<path d="M511.639 71.3589C511.639 71.3589 510.053 71.6573 507.638 71.9962C507.535 72.0111 507.439 72.0239 507.353 72.0356C507.313 72.0416 507.272 72.0465 507.232 72.0525C507.181 72.0593 507.131 72.0664 507.08 72.0732C507.034 72.0792 506.995 72.0841 506.962 72.089C506.944 72.0909 506.926 72.0928 506.909 72.0958C506.895 72.0977 506.884 72.0988 506.876 72.0999C506.849 72.1037 506.823 72.1067 506.795 72.1108C505.701 72.2569 504.473 72.4053 503.17 72.5376C501.591 72.6976 499.9 72.8318 498.2 72.908C496.479 72.984 494.749 72.9998 493.112 72.9197C492.866 72.9069 492.622 72.892 492.38 72.8762C491.695 72.8288 491.031 72.7635 490.395 72.6777C482.15 71.5563 481.753 70.5663 481.753 70.5663C482.436 69.3264 483.342 67.3976 483.88 64.9059C484.562 61.7511 484.368 59.0261 484.26 57.6349C484.202 56.9018 483.69 50.9736 483.759 49.3246C483.77 49.0619 483.787 48.805 483.814 48.554C483.901 47.7478 484.09 47.1451 484.195 46.816C485.358 43.1522 486.768 38.7132 489.098 37.243C490.097 36.6126 491.297 36.1088 491.297 36.1088C491.667 35.9525 492.062 35.8025 492.485 35.6662C492.498 35.6613 492.511 35.6572 492.524 35.6534C492.525 35.6534 492.527 35.6523 492.528 35.6523C493.061 35.4783 493.637 35.3232 494.248 35.2007C495.323 34.9854 497.263 34.7145 499.655 35.0763C499.975 35.1248 500.304 35.1751 500.715 35.2739C500.725 35.2758 500.734 35.2788 500.744 35.2807C500.744 35.2807 503.425 35.9378 505.716 38.1301C506.572 38.9492 507.209 40.1773 507.684 41.5487C508.945 45.1953 509.059 49.851 509.076 50.4804C509.203 55.4902 509.758 62.4863 511.639 71.3589Z" fill="#9571BC"/>
<path d="M500.475 35.43C499.79 36.6326 498.898 37.64 497.816 38.4242C497.515 38.6444 497.016 39.007 496.275 39.3293C495.339 39.7354 494.335 39.9398 493.291 39.9398C493.201 39.9398 493.108 39.9368 493.015 39.9336C492.962 39.9336 492.909 39.9118 492.869 39.8778C492.478 39.5337 491.964 38.9354 491.713 38.0366C491.415 36.9766 491.657 36.0683 491.824 35.6252C491.849 35.5601 491.908 35.5073 491.973 35.4858L492.017 35.4703C492.02 35.4703 492.02 35.4703 492.023 35.4703C492.197 35.4115 492.373 35.3587 492.556 35.3062V25.2481C492.556 25.118 492.661 25.0156 492.789 25.0156H497.621C497.748 25.0156 497.853 25.118 497.853 25.2481V34.7389C498.324 34.7699 500.547 35.0884 500.575 35.1567C500.606 35.2248 500.509 35.3649 500.475 35.43Z" fill="#E7A182"/>
<path d="M492.027 40.6152C492.027 40.6152 490.234 49.8303 490.565 53.0115C490.896 56.1929 492.504 71.7922 492.381 72.8764L494.368 72.973C494.368 72.973 492.281 54.5418 492.195 52.5068C491.986 47.5522 493.49 41.0872 493.55 41.1373C493.61 41.1874 493.867 39.8269 493.867 39.8269L491.573 39.3105L492.027 40.6152Z" fill="white"/>
<path d="M501.66 35.1989C501.66 35.1989 501.609 35.1131 500.928 34.955C499.802 34.7236 499.087 34.5736 499.841 34.7307C499.914 34.746 499.685 35.5062 499.65 35.5713C499.271 36.675 498.861 37.3656 497.779 38.1498C497.478 38.3698 496.979 38.7326 496.239 39.0549C495.302 39.461 494.298 39.6654 493.254 39.6654C493.164 39.6654 493.071 39.6624 492.978 39.6592C492.925 39.6592 492.873 39.6374 492.832 39.6034C492.442 39.2593 491.927 38.661 491.676 37.7622C491.379 36.7023 491.729 35.8201 491.896 35.3766C491.898 35.372 492 35.2054 492.003 35.2008C491.156 35.4752 489.599 36.1647 489.301 36.5844C487.362 39.3107 489.432 43.0897 489.432 43.0897L492.838 39.8059L494.782 43.9469C495.019 43.9256 504.623 38.1708 501.66 35.1989Z" fill="white"/>
<path d="M499.686 34.6765C499.674 34.6745 499.662 34.6728 499.65 34.6709C499.662 34.6726 499.674 34.6745 499.686 34.6765Z" fill="#B1E2F0"/>
<path d="M488.561 20.6879C488.687 19.8885 489.385 20.1549 489.385 20.1549C492.172 21.6872 494.707 21.0211 494.707 21.0211C495.442 21.4079 495.361 21.6559 495.584 21.9441C495.857 22.2969 496.225 22.3924 496.417 22.4866C496.584 22.5685 496.713 22.7139 496.813 22.9069C497.07 22.6731 497.355 22.5577 497.608 22.5865C498.053 22.6371 498.431 23.1317 498.541 23.5858C498.69 24.2012 498.342 24.7206 498.044 25.1659C497.886 25.4011 497.592 25.7775 497.095 26.1221C497.089 26.2765 497.082 26.4308 497.075 26.5838C497.026 27.6971 496.996 28.2635 496.734 28.7488C496.348 29.4642 495.764 29.8017 494.611 30.4476C493.196 31.2397 492.201 31.7969 491.08 31.5136C491.08 31.5136 490.4 31.3418 489.765 30.7473C487.524 28.6525 488.495 21.1697 488.561 20.6879Z" fill="#F8AE8E"/>
<path d="M491.023 31.7386C490.993 31.7307 490.278 31.5448 489.606 30.9168C487.298 28.7593 488.218 21.4788 488.331 20.6559C488.331 20.6546 488.331 20.6527 488.332 20.651C488.382 20.3315 488.518 20.1055 488.735 19.9803C489.062 19.7914 489.428 19.9213 489.468 19.9373C489.478 19.9409 489.487 19.9455 489.497 19.9507C492.164 21.4165 494.624 20.8021 494.648 20.7956C494.704 20.7803 494.764 20.7877 494.815 20.8146C495.414 21.1293 495.541 21.3827 495.653 21.6062C495.689 21.6775 495.72 21.7396 495.768 21.8013C495.951 22.0365 496.187 22.1353 496.377 22.2145C496.43 22.2366 496.479 22.2573 496.52 22.2774C496.653 22.3425 496.77 22.4397 496.871 22.5668C497.121 22.4013 497.386 22.3267 497.635 22.3553C498.201 22.4192 498.641 23.0086 498.768 23.5306C498.941 24.2457 498.551 24.8274 498.237 25.2948C497.995 25.6573 497.687 25.9766 497.323 26.245L497.308 26.5937C497.259 27.7046 497.232 28.3167 496.939 28.8587C496.513 29.6483 495.84 30.0256 494.724 30.6503C493.545 31.3104 492.634 31.8213 491.68 31.8213C491.465 31.8213 491.247 31.7949 491.023 31.7386ZM496.97 23.0782C496.917 23.1267 496.845 23.1471 496.772 23.1351C496.701 23.1223 496.64 23.0774 496.607 23.0129C496.525 22.8553 496.43 22.7511 496.315 22.6947C496.282 22.6781 496.242 22.6618 496.198 22.6433C495.983 22.5537 495.658 22.4184 495.4 22.0861C495.325 21.9886 495.279 21.8963 495.238 21.815C495.15 21.641 495.074 21.4897 494.674 21.2667C494.182 21.3737 491.856 21.7698 489.291 20.3679C489.248 20.356 489.086 20.314 488.968 20.3829C488.878 20.4344 488.819 20.5481 488.791 20.7213C488.743 21.0743 487.755 28.5497 489.924 30.5771C490.504 31.1198 491.131 31.2862 491.137 31.2875C492.169 31.5499 493.095 31.0297 494.497 30.2445C495.656 29.5955 496.183 29.2814 496.53 28.6377C496.762 28.2073 496.794 27.6937 496.844 26.5727L496.864 26.1119C496.867 26.0392 496.904 25.9717 496.963 25.9304C497.321 25.6821 497.62 25.3811 497.851 25.0356C498.141 24.6034 498.441 24.1564 498.316 23.6398C498.227 23.2739 497.922 22.8553 497.583 22.8167C497.566 22.8147 497.549 22.8139 497.532 22.8139C497.358 22.8145 497.157 22.9087 496.97 23.0782Z" fill="#F8AE8E"/>
<path d="M490.511 27.3975C490.363 27.3975 490.029 27.3702 489.787 27.1465C489.622 26.9932 489.534 26.7747 489.534 26.515C489.534 25.942 490.001 25.7074 490.361 25.6396V23.6299C490.361 23.5172 490.453 23.4258 490.565 23.4258C490.678 23.4258 490.769 23.5172 490.769 23.6299V25.8217C490.769 25.9322 490.682 26.0226 490.571 26.0256C490.507 26.0277 489.942 26.0607 489.942 26.5147C489.942 26.6612 489.981 26.7695 490.063 26.8454C490.207 26.9799 490.464 26.9932 490.55 26.9875C490.658 26.9804 490.76 27.064 490.768 27.1762C490.776 27.2883 490.693 27.386 490.581 27.3947C490.572 27.3958 490.547 27.3975 490.511 27.3975Z" fill="#292466"/>
<path d="M492.632 24.4239C492.632 24.8194 492.471 25.1398 492.271 25.1398C492.072 25.1398 491.911 24.8191 491.911 24.4239C491.911 24.0287 492.072 23.708 492.271 23.708C492.471 23.708 492.632 24.0284 492.632 24.4239Z" fill="#292466"/>
<path d="M489.587 24.2999C489.587 24.6954 489.425 25.0158 489.226 25.0158C489.027 25.0158 488.866 24.6951 488.866 24.2999C488.866 23.9044 489.027 23.584 489.226 23.584C489.425 23.5837 489.587 23.9044 489.587 24.2999Z" fill="#292466"/>
<path d="M491.985 22.3128C492.099 22.1843 492.306 22.0602 492.654 22.1516C492.905 22.2178 493.415 22.7507 493.517 22.9337C493.619 23.1166 493.466 23.1773 493.273 23.0556C493.08 22.9337 492.723 22.7167 492.512 22.6901C492.287 22.662 491.981 22.7037 491.93 22.5929C491.88 22.4824 491.937 22.3659 491.985 22.3128Z" fill="#292466"/>
<path d="M489.68 22.277C489.578 22.1387 489.383 21.9963 489.028 22.0559C488.772 22.0992 488.216 22.5837 488.098 22.7566C487.98 22.9294 488.126 23.004 488.329 22.9C488.533 22.7961 488.908 22.6123 489.121 22.605C489.347 22.5971 489.648 22.6665 489.709 22.5609C489.769 22.4553 489.723 22.3341 489.68 22.277Z" fill="#292466"/>
<path opacity="0.36" d="M492.649 26.9974C492.878 27.4716 493.584 27.6044 494.227 27.2941C494.87 26.9838 495.205 26.3479 494.976 25.8735C494.748 25.3993 494.041 25.2665 493.398 25.5768C492.755 25.8871 492.42 26.5232 492.649 26.9974Z" fill="#FE4F5A"/>
<path d="M498.031 28.4639C497.152 28.4639 496.437 27.7489 496.437 26.8697C496.437 25.9905 497.152 25.2754 498.031 25.2754C498.91 25.2754 499.625 25.9905 499.625 26.8697C499.625 27.7489 498.91 28.4639 498.031 28.4639ZM498.031 25.5476C497.302 25.5476 496.709 26.1407 496.709 26.8697C496.709 27.5986 497.302 28.1917 498.031 28.1917C498.76 28.1917 499.353 27.5986 499.353 26.8697C499.353 26.1407 498.76 25.5476 498.031 25.5476Z" fill="white"/>
<path d="M497.494 25.0832C497.556 25.0832 497.617 25.059 497.663 25.0111C498.135 24.5146 498.118 23.8276 497.805 23.4974C497.588 23.2685 497.274 23.2595 497.022 23.4751C496.925 23.5584 496.913 23.7051 496.997 23.8025C497.08 23.9002 497.227 23.9114 497.325 23.8278C497.409 23.7557 497.438 23.7873 497.467 23.817C497.591 23.9473 497.65 24.351 497.326 24.6902C497.238 24.783 497.241 24.9303 497.334 25.019C497.379 25.062 497.437 25.0832 497.494 25.0832Z" fill="#292466"/>
<path d="M528.196 75.9527C528.219 76.3319 528.515 81.7302 527.141 83.2765C526.95 83.491 526.537 83.9554 525.899 84.0213C525.463 84.0664 524.872 83.9306 524.596 83.5248C524.505 83.39 524.451 83.0609 524.348 82.4077C524.243 82.4656 523.574 82.8203 522.858 82.5318C522.708 82.4711 522.109 82.2296 521.984 81.6308C521.892 81.1907 522.113 80.8281 522.176 80.732C522.039 80.7916 521.238 81.1272 520.562 80.732C520.419 80.6479 520.05 80.3958 519.817 79.6149C519.525 78.6322 519.69 77.6243 520.438 75.6427C521.206 73.6074 521.59 72.5899 522.052 72.3531C523.399 71.6617 525.901 73.1578 528.196 75.9527Z" fill="#E7A182"/>
<path d="M525.731 84.262C525.249 84.262 524.694 84.0837 524.404 83.655C524.301 83.5031 524.248 83.2478 524.166 82.7434C523.839 82.8626 523.32 82.9685 522.771 82.747C522.057 82.4595 521.825 82.0071 521.756 81.678C521.712 81.4671 521.727 81.2711 521.767 81.1026C521.395 81.1802 520.898 81.1976 520.445 80.9322C520.066 80.7115 519.772 80.2787 519.594 79.6806C519.288 78.6514 519.446 77.6116 520.22 75.5603C521.033 73.4067 521.404 72.4235 521.946 72.1459C523.387 71.4049 525.972 72.8764 528.376 75.805C528.407 75.8429 528.425 75.8894 528.428 75.9382C528.464 76.5362 528.742 81.8258 527.315 83.4305C527.116 83.6539 526.652 84.1766 525.923 84.252C525.861 84.2585 525.797 84.262 525.731 84.262ZM524.348 82.1748C524.382 82.1748 524.418 82.1827 524.45 82.1985C524.518 82.2317 524.565 82.2962 524.577 82.3711C524.659 82.8901 524.724 83.3001 524.788 83.394C525 83.7059 525.496 83.8306 525.875 83.7898C526.424 83.7331 526.791 83.3202 526.967 83.1221C528.013 81.9451 528.081 78.0216 527.968 76.0421C525.755 73.3678 523.373 71.9371 522.158 72.5596C521.776 72.7556 521.354 73.8732 520.656 75.7245C519.922 77.6666 519.767 78.6313 520.04 79.5481C520.184 80.031 520.405 80.3707 520.679 80.531C521.224 80.8497 521.891 80.6023 522.083 80.5185C522.176 80.4779 522.287 80.5029 522.353 80.5813C522.419 80.66 522.426 80.7727 522.37 80.8587C522.299 80.9668 522.143 81.2537 522.211 81.583C522.277 81.8999 522.524 82.1462 522.945 82.3158C523.528 82.551 524.08 82.2894 524.235 82.2036C524.27 82.1846 524.309 82.1748 524.348 82.1748Z" fill="#E7A182"/>
<path d="M524.434 82.6762C524.41 82.6762 524.387 82.6727 524.363 82.665C524.241 82.6261 524.173 82.4952 524.212 82.373C524.227 82.3261 525.699 77.6715 524.846 75.7751C524.794 75.6581 524.846 75.5206 524.963 75.4678C525.079 75.4153 525.217 75.467 525.27 75.5843C526.196 77.6427 524.719 82.3163 524.655 82.5145C524.624 82.613 524.532 82.6762 524.434 82.6762Z" fill="#F8AE8E"/>
<path d="M524.1 64.0978C524.878 65.0013 525.961 66.3253 527.141 68.008C529.3 71.0855 530.379 72.624 530.927 74.6489C532.113 79.0326 530.56 84.2722 528.507 84.7655C527.987 84.8904 527.026 84.8093 526.625 84.2025C526.226 83.5991 526.571 82.7629 526.645 82.5933C526.889 82.1768 528.316 79.668 527.265 77.3798C526.556 75.8354 524.803 74.5765 524.442 74.8383C524.368 74.8925 524.332 75.0177 524.41 75.3939C524.803 77.2884 525.795 78.111 525.651 79.3661C525.611 79.714 525.573 80.0444 525.341 80.1729C524.482 80.6482 521.929 77.8352 520.438 75.6421C519.417 74.1404 517.97 71.9582 517.521 68.6909C517.179 66.203 517.563 64.1501 517.893 62.9189C519.962 63.3117 522.031 63.7048 524.1 64.0978Z" fill="#F8AE8E"/>
<path d="M528.045 85.0479C527.467 85.0479 526.779 84.8565 526.431 84.3309C525.999 83.6768 526.288 82.8333 526.431 82.5009C526.827 81.8248 528.002 79.5418 527.054 77.4769C526.411 76.0767 524.975 75.0565 524.599 75.0345C524.597 75.0799 524.602 75.1717 524.638 75.3467C524.81 76.1758 525.102 76.797 525.36 77.3446C525.687 78.039 525.969 78.6387 525.882 79.3927C525.837 79.7849 525.791 80.1899 525.454 80.3764C524.221 81.0572 521.205 77.1843 520.246 75.7729C519.314 74.403 517.756 72.1097 517.291 68.7224C517.022 66.7667 517.149 64.7938 517.669 62.8587C517.7 62.7408 517.819 62.6684 517.936 62.6905L524.143 63.8699C524.195 63.8797 524.241 63.9067 524.276 63.9464C525.351 65.1955 526.379 66.5173 527.331 67.8745C529.503 70.9708 530.593 72.5242 531.151 74.5883C532.053 77.922 531.383 81.5904 530.256 83.4915C529.761 84.3255 529.175 84.8443 528.561 84.9918C528.411 85.0275 528.234 85.0479 528.045 85.0479ZM524.571 74.5709C524.633 74.5709 524.7 74.5804 524.774 74.5998C525.455 74.7783 526.848 75.9126 527.476 77.2828C528.519 79.5524 527.257 82.0112 526.845 82.7108C526.769 82.8904 526.503 83.5971 526.819 84.0745C527.138 84.5574 527.972 84.6551 528.452 84.5394C528.941 84.4218 529.427 83.9773 529.856 83.2538C530.933 81.4372 531.571 77.9187 530.702 74.7097C530.165 72.7243 529.091 71.1932 526.951 68.1426C526.022 66.8192 525.022 65.5311 523.976 64.3111L518.063 63.1878C517.606 64.9957 517.501 66.8353 517.751 68.659C518.201 71.9385 519.663 74.0886 520.63 75.5114C522.376 78.0801 524.654 80.2841 525.228 79.9695C525.356 79.899 525.388 79.6148 525.42 79.3401C525.492 78.7168 525.248 78.1988 524.939 77.5425C524.67 76.9714 524.366 76.3236 524.182 75.4409C524.107 75.0753 524.099 74.8009 524.306 74.6501C524.378 74.5973 524.467 74.5709 524.571 74.5709Z" fill="#F8AE8E"/>
<path d="M511.089 70.1453L506.232 59.1574C504.762 55.8308 504.421 52.1153 505.256 48.5753C506.05 45.2104 507.094 41.8144 507.879 42.9394C508.692 46.2178 508.778 49.7 508.792 50.2384C508.917 55.0989 509.446 61.835 511.196 70.335C511.156 70.2754 511.119 70.2128 511.089 70.1453Z" fill="#70479C"/>
<path d="M502.226 35.8189C502.226 38.2004 506.993 53.8617 506.993 53.8617L513.999 69.7127C514.198 70.1641 514.647 70.4526 515.14 70.4518C521.969 70.4398 526.123 67.8855 527.889 66.4831C528.457 66.0329 528.522 65.1961 528.028 64.6656L516.916 52.7174L516.702 52.4874C516.702 52.4874 516.694 52.4708 516.677 52.4378C516.241 51.5905 510.244 40.0408 506.626 37.923C502.871 35.725 502.226 35.8189 502.226 35.8189Z" fill="#9571BC"/>
<path d="M491.724 30.0529C490.884 30.0529 489.959 28.9442 489.851 28.8108C489.782 28.7259 489.771 28.6081 489.822 28.5114C489.874 28.4151 489.98 28.3595 490.087 28.3682C491.663 28.5071 492.444 27.8347 492.452 27.8277C492.533 27.7563 492.648 27.74 492.745 27.7844C492.843 27.8293 492.905 27.9273 492.904 28.0351C492.902 28.2234 492.854 29.8811 491.867 30.0415C491.82 30.0494 491.772 30.0529 491.724 30.0529ZM490.711 28.9276C491.057 29.2466 491.489 29.5515 491.78 29.5041C492.073 29.4565 492.236 28.9845 492.309 28.5487C491.959 28.718 491.425 28.8982 490.711 28.9276Z" fill="#292466"/>
<path d="M489.345 36.2376C489.213 36.2376 489.098 36.1423 489.076 36.0087C489.038 35.7749 489.135 35.4727 489.257 35.0903C489.435 34.5315 489.657 33.8357 489.478 33.2736C489.375 32.9486 489.207 32.7417 489.029 32.5229C488.735 32.1595 488.4 31.7471 488.476 30.8426C488.488 30.6929 488.616 30.5807 488.769 30.5938C488.919 30.6063 489.03 30.7378 489.018 30.8878C488.961 31.574 489.178 31.8413 489.452 32.1799C489.645 32.417 489.863 32.6854 489.997 33.1084C490.229 33.836 489.967 34.6567 489.776 35.2558C489.692 35.5187 489.597 35.8168 489.614 35.9221C489.638 36.0705 489.537 36.2104 489.389 36.2341C489.374 36.2368 489.359 36.2376 489.345 36.2376Z" fill="#2658A0"/>
</g>
<defs>
<linearGradient id="paint0_linear_3786_40075" x1="-2.32513e-07" y1="4.5" x2="520.791" y2="240.563" gradientUnits="userSpaceOnUse">
<stop stop-color="#7B4EAB"/>
<stop offset="1" stop-color="#24BCE3" stop-opacity="0.5"/>
</linearGradient>
<linearGradient id="paint1_linear_3786_40075" x1="540.242" y1="122.874" x2="523.007" y2="90.0715" gradientUnits="userSpaceOnUse">
<stop stop-color="#CCE0F4"/>
<stop offset="0.1727" stop-color="#C3D8F5"/>
<stop offset="0.4598" stop-color="#A9C1F8"/>
<stop offset="0.8238" stop-color="#809DFD"/>
<stop offset="0.9891" stop-color="#6B8AFF"/>
</linearGradient>
<clipPath id="clip0_3786_40075">
<rect width="570" height="132" rx="8" fill="white"/>
</clipPath>
</defs>
</svg>
