<svg preserveAspectRatio="none" width="100%" height="100%" overflow="visible" style="display: block;" viewBox="0 0 230 141" fill="none" xmlns="http://www.w3.org/2000/svg">
<g id="Illustration">
<g id="Group">
<path id="Vector" d="M189.659 27.8813L226.36 1.83628L191.104 13.5513L189.659 27.8813Z" fill="var(--fill-0, #7B4EAB)"/>
<path id="Vector_2" d="M183.578 5.16244L191.104 13.5512L229.127 0L195.352 19.7247L205.703 32.4256L229.127 0L183.578 5.16244Z" fill="var(--fill-0, #D6C8E5)"/>
<path id="Vector_3" d="M191.104 13.5512L189.659 27.8813L195.352 19.7247L229.128 3.94696e-05L191.104 13.5512Z" fill="var(--fill-0, #A788C7)"/>
</g>
<path id="Vector_4" d="M38.5567 140.29C38.5541 140.29 38.5516 140.29 38.549 140.29C38.139 140.285 37.7261 140.276 37.3219 140.263C36.988 140.252 36.7261 139.971 36.737 139.636C36.748 139.302 37.0274 139.041 37.3614 139.05C37.7574 139.063 38.162 139.072 38.564 139.077C38.898 139.081 39.1655 139.356 39.1614 139.691C39.1572 140.024 38.8872 140.29 38.5567 140.29ZM41.5921 140.254C41.2681 140.254 40.9997 139.996 40.9879 139.669C40.9759 139.334 41.2368 139.053 41.5707 139.041C41.9661 139.026 42.3706 139.008 42.773 138.986C43.1069 138.968 43.3918 139.224 43.4098 139.559C43.428 139.893 43.1723 140.179 42.8387 140.198C42.429 140.22 42.017 140.239 41.6143 140.253C41.6068 140.254 41.5994 140.254 41.5921 140.254ZM34.3104 140.084C34.293 140.084 34.2754 140.083 34.2577 140.081C33.849 140.046 33.4376 140.006 33.035 139.962C32.7029 139.926 32.4629 139.626 32.499 139.293C32.5351 138.96 32.8337 138.719 33.1658 138.756C33.5595 138.799 33.9618 138.838 34.3617 138.872C34.6945 138.901 34.9411 139.195 34.9124 139.529C34.8852 139.845 34.6209 140.084 34.3104 140.084ZM45.8328 139.968C45.5242 139.968 45.2607 139.732 45.2313 139.418C45.2 139.084 45.4443 138.788 45.777 138.757L46.1001 138.726C46.3905 138.698 46.685 138.668 46.9753 138.636C47.3076 138.6 47.6062 138.84 47.6425 139.173C47.6789 139.506 47.4392 139.806 47.1071 139.843C46.8111 139.875 46.5108 139.906 46.2146 139.934L45.8901 139.965C45.8709 139.967 45.8518 139.968 45.8328 139.968ZM30.0931 139.547C30.0595 139.547 30.0254 139.544 29.9911 139.538C29.5865 139.47 29.1793 139.395 28.781 139.316C28.4531 139.252 28.2395 138.933 28.3038 138.604C28.3681 138.275 28.6859 138.061 29.0139 138.126C29.4022 138.202 29.7991 138.275 30.1937 138.342C30.5231 138.398 30.7448 138.711 30.6888 139.042C30.6387 139.338 30.3828 139.547 30.0931 139.547ZM50.0427 139.438C49.7512 139.438 49.4944 139.226 49.4463 138.928C49.3929 138.598 49.617 138.286 49.9468 138.233C50.3406 138.169 50.7385 138.1 51.1295 138.028C51.4584 137.967 51.7735 138.185 51.8338 138.515C51.8943 138.844 51.6769 139.16 51.3483 139.221C50.9488 139.295 50.5423 139.365 50.1402 139.43C50.1073 139.436 50.0748 139.438 50.0427 139.438ZM25.9394 138.642C25.8876 138.642 25.8349 138.635 25.7825 138.621C25.3848 138.514 24.9859 138.401 24.597 138.284C24.2769 138.188 24.095 137.85 24.1908 137.529C24.2865 137.208 24.6235 137.026 24.9437 137.122C25.3214 137.235 25.7089 137.345 26.0954 137.449C26.4182 137.536 26.6097 137.869 26.5233 138.192C26.4509 138.463 26.2065 138.642 25.9394 138.642ZM54.2017 138.601C53.9286 138.601 53.6809 138.414 53.6141 138.136C53.5358 137.81 53.7356 137.483 54.0604 137.404C54.449 137.31 54.8403 137.211 55.2233 137.109C55.5462 137.023 55.8774 137.216 55.963 137.54C56.0486 137.864 55.8561 138.196 55.5332 138.282C55.1414 138.386 54.7413 138.488 54.3439 138.584C54.2963 138.595 54.2485 138.601 54.2017 138.601ZM58.2834 137.443C58.0286 137.443 57.7917 137.28 57.7084 137.024C57.6049 136.705 57.7784 136.363 58.0961 136.259C58.4748 136.135 58.8575 136.005 59.2336 135.873C59.5489 135.762 59.8941 135.928 60.0048 136.244C60.1154 136.56 59.9496 136.907 59.6343 137.018C59.2497 137.153 58.8583 137.286 58.4711 137.413C58.4088 137.433 58.3455 137.443 58.2834 137.443ZM21.8972 137.327C21.8248 137.327 21.7512 137.314 21.6796 137.286C21.2953 137.137 20.9102 136.981 20.5353 136.822C20.2277 136.691 20.0841 136.335 20.2146 136.026C20.3451 135.718 20.7003 135.574 21.0077 135.704C21.3705 135.859 21.743 136.01 22.115 136.154C22.4267 136.274 22.5819 136.626 22.4617 136.938C22.3691 137.179 22.14 137.327 21.8972 137.327ZM62.2625 135.967C62.0251 135.967 61.7998 135.826 61.7033 135.593C61.5755 135.283 61.722 134.928 62.0307 134.8C62.3985 134.647 62.7699 134.488 63.1344 134.327C63.44 134.192 63.7972 134.331 63.9317 134.638C64.0662 134.945 63.9274 135.303 63.6216 135.438C63.249 135.602 62.8696 135.765 62.4937 135.921C62.418 135.952 62.3395 135.967 62.2625 135.967ZM18.0305 135.562C17.9347 135.562 17.8377 135.539 17.7472 135.491C17.384 135.297 17.0202 135.095 16.666 134.889C16.3769 134.721 16.2784 134.349 16.4459 134.059C16.6134 133.77 16.9836 133.671 17.2727 133.839C17.614 134.037 17.9646 134.232 18.3148 134.419C18.6099 134.576 18.722 134.943 18.5653 135.239C18.4565 135.445 18.247 135.562 18.0305 135.562ZM66.1192 134.193C65.8979 134.193 65.6847 134.071 65.5784 133.859C65.4282 133.56 65.5484 133.195 65.8468 133.045C66.2016 132.866 66.5608 132.68 66.9145 132.492C67.2099 132.336 67.5759 132.449 67.732 132.745C67.8881 133.042 67.7751 133.409 67.4797 133.565C67.1189 133.756 66.7525 133.946 66.3906 134.129C66.3034 134.173 66.2107 134.193 66.1192 134.193ZM14.4184 133.321C14.2966 133.321 14.1736 133.285 14.067 133.208C13.7323 132.968 13.3984 132.718 13.0745 132.466C12.8107 132.26 12.763 131.879 12.968 131.614C13.1729 131.35 13.553 131.302 13.8168 131.507C14.1281 131.75 14.4492 131.99 14.7709 132.221C15.0426 132.416 15.1053 132.795 14.9109 133.068C14.7928 133.233 14.607 133.321 14.4184 133.321ZM69.8435 132.153C69.6364 132.153 69.4346 132.046 69.3218 131.854C69.1522 131.565 69.248 131.193 69.5358 131.023C69.8781 130.821 70.225 130.612 70.5667 130.402C70.8515 130.226 71.224 130.316 71.3986 130.602C71.5733 130.887 71.484 131.261 71.1991 131.436C70.8513 131.65 70.4984 131.863 70.1501 132.069C70.0537 132.126 69.948 132.153 69.8435 132.153ZM11.1465 130.608C10.9966 130.608 10.8463 130.552 10.7292 130.44C10.6404 130.355 10.5518 130.269 10.4637 130.183C10.2571 129.981 10.0506 129.772 9.85012 129.564C9.61795 129.324 9.62442 128.939 9.86464 128.707C10.1049 128.474 10.4878 128.48 10.72 128.721C10.9125 128.921 11.1107 129.121 11.3092 129.315C11.3938 129.398 11.4788 129.48 11.5641 129.562C11.8059 129.793 11.815 130.177 11.5844 130.42C11.4656 130.545 11.3062 130.608 11.1465 130.608ZM73.4351 129.883C73.2401 129.883 73.0487 129.789 72.932 129.614C72.746 129.336 72.8202 128.959 73.0978 128.772C73.426 128.552 73.761 128.323 74.0936 128.092C74.3684 127.902 74.7452 127.971 74.9352 128.246C75.1252 128.522 75.0566 128.9 74.7818 129.09C74.4444 129.324 74.1044 129.557 73.7713 129.781C73.6678 129.85 73.5508 129.883 73.4351 129.883ZM8.28946 127.458C8.11059 127.458 7.9334 127.378 7.81405 127.226C7.56004 126.903 7.30887 126.571 7.06769 126.237C6.87133 125.966 6.93134 125.587 7.20162 125.39C7.4719 125.193 7.85028 125.253 8.04658 125.524C8.27851 125.844 8.51994 126.164 8.76415 126.475C8.97104 126.738 8.92603 127.12 8.66367 127.327C8.55261 127.415 8.42055 127.458 8.28946 127.458ZM76.9017 127.425C76.7168 127.425 76.5344 127.34 76.4156 127.18C76.2164 126.911 76.2723 126.531 76.5404 126.331C76.8592 126.093 77.1834 125.848 77.5042 125.603C77.7699 125.4 78.1495 125.451 78.3521 125.718C78.5547 125.984 78.5035 126.365 78.2378 126.568C77.9131 126.816 77.5848 127.064 77.262 127.305C77.1536 127.386 77.0271 127.425 76.9017 127.425ZM80.2569 124.814C80.0803 124.814 79.9053 124.737 79.7858 124.588C79.576 124.327 79.6165 123.945 79.8765 123.735C80.1859 123.484 80.5008 123.227 80.8126 122.969C81.0704 122.756 81.4517 122.793 81.6642 123.052C81.8766 123.31 81.8398 123.693 81.5819 123.906C81.2671 124.166 80.949 124.426 80.6365 124.679C80.5246 124.77 80.3903 124.814 80.2569 124.814ZM5.89534 123.943C5.68815 123.943 5.48635 123.836 5.37359 123.644C5.16598 123.29 4.96145 122.927 4.76587 122.564C4.60696 122.269 4.71645 121.901 5.01039 121.742C5.30438 121.582 5.67139 121.692 5.83019 121.987C6.0188 122.337 6.21595 122.687 6.41606 123.028C6.58562 123.317 6.48974 123.688 6.20185 123.859C6.10537 123.916 5.99969 123.943 5.89534 123.943ZM83.5169 122.083C83.347 122.083 83.1781 122.012 83.0584 121.872C82.8403 121.618 82.8687 121.235 83.1218 121.017C83.4216 120.757 83.7288 120.49 84.0348 120.221C84.2862 120.001 84.6684 120.026 84.8884 120.278C85.1085 120.53 85.0831 120.914 84.8317 121.134C84.5233 121.405 84.2138 121.675 83.9116 121.936C83.7973 122.035 83.6567 122.083 83.5169 122.083ZM3.97535 120.143C3.74118 120.143 3.51827 120.006 3.4196 119.776C3.25791 119.4 3.09966 119.015 2.94939 118.631C2.82732 118.319 2.98055 117.967 3.29154 117.844C3.60259 117.722 3.95363 117.876 4.07565 118.188C4.22101 118.559 4.37406 118.932 4.53043 119.296C4.66279 119.603 4.52142 119.96 4.21466 120.093C4.13663 120.127 4.05538 120.143 3.97535 120.143ZM86.6982 119.26C86.5334 119.26 86.3692 119.193 86.2498 119.06C86.0255 118.812 86.0443 118.428 86.2917 118.203C86.589 117.933 86.8871 117.66 87.186 117.385C87.4322 117.159 87.8148 117.175 88.0407 117.422C88.2666 117.669 88.2502 118.053 88.004 118.279C87.7032 118.556 87.4034 118.831 87.1043 119.103C86.9885 119.208 86.8432 119.26 86.6982 119.26ZM89.8167 116.366C89.6559 116.366 89.4954 116.302 89.3764 116.175C89.1473 115.931 89.1586 115.548 89.4018 115.318C89.6941 115.042 89.9873 114.763 90.2815 114.482C90.5237 114.251 90.9065 114.261 91.1367 114.504C91.367 114.747 91.3573 115.131 91.1153 115.362C90.8197 115.644 90.5252 115.923 90.2315 116.201C90.1147 116.311 89.9656 116.366 89.8167 116.366ZM2.51808 116.139C2.2585 116.139 2.01859 115.97 1.93934 115.708C1.82108 115.317 1.70669 114.917 1.59931 114.519C1.51202 114.196 1.70263 113.862 2.02512 113.775C2.34761 113.687 2.67978 113.878 2.76707 114.202C2.87136 114.588 2.98242 114.977 3.09712 115.356C3.19403 115.677 3.01345 116.016 2.69369 116.113C2.63531 116.131 2.57621 116.139 2.51808 116.139ZM92.8868 113.42C92.7288 113.42 92.5711 113.359 92.4524 113.236C92.2198 112.996 92.2257 112.611 92.4655 112.378C92.754 112.097 93.0436 111.815 93.3343 111.53C93.5734 111.296 93.9564 111.301 94.1898 111.54C94.4231 111.78 94.4185 112.164 94.1794 112.399C93.8878 112.684 93.5973 112.968 93.3078 113.249C93.1903 113.363 93.0384 113.42 92.8868 113.42ZM1.4952 112.001C1.21173 112.001 0.958692 111.8 0.902191 111.511C0.824035 111.11 0.749928 110.701 0.682055 110.295C0.626765 109.965 0.849015 109.652 1.17846 109.596C1.50803 109.541 1.81987 109.764 1.87516 110.094C1.94128 110.49 2.01339 110.888 2.08949 111.278C2.15361 111.606 1.93989 111.925 1.61202 111.99C1.57288 111.997 1.53374 112.001 1.4952 112.001ZM95.9206 110.437C95.7648 110.437 95.609 110.377 95.4907 110.257C95.2556 110.019 95.2575 109.635 95.495 109.399C95.7808 109.115 96.0677 108.829 96.356 108.542C96.5928 108.306 96.9759 108.307 97.2115 108.544C97.447 108.782 97.4459 109.166 97.209 109.403C96.9202 109.691 96.6326 109.977 96.3462 110.261C96.2283 110.378 96.0744 110.437 95.9206 110.437ZM0.872307 107.783C0.566031 107.783 0.303311 107.551 0.27131 107.239C0.229751 106.833 0.192488 106.42 0.160548 106.01C0.134536 105.676 0.383404 105.384 0.716478 105.358C1.0501 105.332 1.34064 105.581 1.36678 105.915C1.39793 106.315 1.43429 106.719 1.47488 107.114C1.50906 107.448 1.26733 107.746 0.934978 107.78C0.913806 107.782 0.892935 107.783 0.872307 107.783ZM98.9291 107.427C98.7746 107.427 98.6202 107.368 98.5021 107.25C98.2654 107.014 98.2647 106.63 98.5005 106.392C98.7845 106.107 99.0698 105.819 99.3562 105.53C99.5917 105.292 99.9747 105.291 100.212 105.527C100.449 105.763 100.45 106.147 100.215 106.385C99.9277 106.674 99.6421 106.963 99.3576 107.249C99.2395 107.368 99.0842 107.427 98.9291 107.427ZM101.921 104.401C101.768 104.401 101.614 104.343 101.496 104.226C101.258 103.991 101.256 103.606 101.491 103.368C101.774 103.081 102.058 102.792 102.344 102.502C102.578 102.263 102.961 102.261 103.199 102.496C103.437 102.731 103.44 103.116 103.205 103.354C102.919 103.645 102.635 103.934 102.352 104.221C102.233 104.341 102.077 104.401 101.921 104.401ZM0.615456 103.527C0.286979 103.527 0.017482 103.264 0.0108883 102.933C0.00362913 102.569 0 102.199 0 101.833L0.000121842 101.701C0.000787265 101.366 0.271491 101.096 0.604988 101.096C0.605412 101.096 0.605837 101.096 0.606321 101.096C0.940363 101.096 1.21071 101.368 1.20998 101.704L1.20986 101.833C1.20986 102.191 1.21349 102.553 1.2205 102.909C1.22716 103.244 0.961778 103.521 0.627736 103.527C0.623683 103.527 0.619569 103.527 0.615456 103.527ZM104.905 101.366C104.751 101.366 104.598 101.308 104.48 101.192C104.242 100.957 104.239 100.573 104.473 100.334L105.325 99.466C105.56 99.2272 105.943 99.2241 106.181 99.4592C106.419 99.6942 106.422 100.078 106.188 100.317L105.336 101.185C105.217 101.306 105.061 101.366 104.905 101.366ZM0.695185 99.2653C0.683691 99.2653 0.672255 99.265 0.660641 99.2644C0.327083 99.2455 0.0719238 98.959 0.0906766 98.6244C0.113482 98.2183 0.14101 97.8051 0.172466 97.3966C0.198176 97.0625 0.488298 96.8118 0.822219 96.8385C1.15529 96.8643 1.40446 97.156 1.37875 97.4901C1.3479 97.8903 1.32098 98.2949 1.29866 98.6927C1.28051 99.0157 1.01368 99.2653 0.695185 99.2653ZM107.885 98.3288C107.732 98.3288 107.579 98.2708 107.461 98.1544C107.223 97.9194 107.22 97.5352 107.454 97.2964L108.306 96.4284C108.541 96.1897 108.924 96.1868 109.162 96.422C109.4 96.6571 109.403 97.0413 109.168 97.2801L108.316 98.1478C108.198 98.2683 108.042 98.3288 107.885 98.3288ZM110.869 95.2935C110.715 95.2935 110.561 95.2353 110.444 95.1185C110.206 94.883 110.203 94.4989 110.438 94.2604C110.721 93.9727 111.006 93.6839 111.292 93.3938C111.527 93.1555 111.91 93.1534 112.147 93.3889C112.385 93.6245 112.387 94.0087 112.152 94.247C111.866 94.537 111.582 94.8256 111.299 95.1131C111.181 95.2333 111.025 95.2935 110.869 95.2935ZM1.08796 95.0213C1.06213 95.0213 1.03606 95.0196 1.00981 95.0162C0.678488 94.9734 0.444503 94.6692 0.487211 94.3369C0.539114 93.9327 0.596034 93.5228 0.656225 93.1188C0.705587 92.7874 1.01374 92.5596 1.34397 92.6084C1.67438 92.658 1.9022 92.9668 1.85284 93.2982C1.79379 93.6943 1.73808 94.0959 1.68715 94.4921C1.64783 94.798 1.38759 95.0213 1.08796 95.0213ZM113.858 92.2648C113.704 92.2648 113.55 92.2061 113.432 92.0886C113.195 91.8524 113.194 91.4683 113.429 91.2305C113.713 90.9436 113.999 90.6555 114.286 90.3664C114.521 90.1288 114.904 90.1278 115.141 90.3642C115.378 90.6005 115.379 90.9847 115.143 91.2222C114.857 91.5112 114.571 91.799 114.288 92.0856C114.169 92.205 114.014 92.2648 113.858 92.2648ZM1.77886 90.8161C1.73935 90.8161 1.69925 90.8122 1.65902 90.8041C1.33145 90.7381 1.11936 90.4182 1.18518 90.0897C1.26551 89.6888 1.35081 89.2841 1.43864 88.8869C1.51099 88.5598 1.83384 88.3534 2.16026 88.426C2.48638 88.4986 2.69218 88.8226 2.61983 89.1498C2.53374 89.5391 2.45015 89.9358 2.37132 90.3289C2.31355 90.617 2.06105 90.8161 1.77886 90.8161ZM116.858 89.246C116.703 89.246 116.549 89.1867 116.43 89.0681C116.194 88.8311 116.194 88.447 116.431 88.2101C116.716 87.9241 117.003 87.6372 117.291 87.3491C117.527 87.1126 117.91 87.1132 118.146 87.3504C118.382 87.5877 118.382 87.9719 118.145 88.2085C117.857 88.4962 117.571 88.7828 117.286 89.0684C117.168 89.1868 117.013 89.246 116.858 89.246ZM2.76144 86.67C2.70827 86.67 2.65419 86.6629 2.60041 86.6481C2.27828 86.559 2.08912 86.225 2.17793 85.9019C2.28639 85.5071 2.40011 85.109 2.51608 84.7188C2.61148 84.3976 2.94824 84.2149 3.26849 84.3106C3.58868 84.4062 3.77095 84.7441 3.67555 85.0653C3.56201 85.4475 3.45058 85.8375 3.34429 86.2243C3.27037 86.4934 3.02688 86.67 2.76144 86.67ZM119.871 86.24C119.715 86.24 119.56 86.1801 119.441 86.0602C119.206 85.822 119.208 85.4378 119.445 85.2021C119.732 84.9174 120.02 84.6318 120.31 84.3452C120.547 84.1097 120.93 84.1123 121.165 84.3507C121.4 84.5892 121.397 84.9734 121.16 85.2089C120.871 85.495 120.583 85.7802 120.297 86.0645C120.179 86.1816 120.025 86.24 119.871 86.24ZM122.899 83.2491C122.742 83.2491 122.585 83.1882 122.466 83.0669C122.233 82.8276 122.237 82.4434 122.475 82.2089C122.764 81.9256 123.053 81.6415 123.344 81.3565C123.583 81.1225 123.966 81.1271 124.2 81.3668C124.433 81.6065 124.428 81.9907 124.189 82.2248C123.899 82.5092 123.61 82.793 123.322 83.0757C123.204 83.1914 123.051 83.2491 122.899 83.2491ZM4.03923 82.6045C3.97172 82.6045 3.90306 82.5931 3.83585 82.569C3.52123 82.4563 3.35723 82.1092 3.46957 81.7936C3.60749 81.4061 3.75074 81.0173 3.89532 80.6382C4.01467 80.3252 4.36444 80.1684 4.6764 80.2882C4.98849 80.4079 5.14468 80.7586 5.02533 81.0716C4.88396 81.4424 4.74385 81.8226 4.60889 82.2016C4.52063 82.4499 4.28768 82.6045 4.03923 82.6045ZM125.943 80.2751C125.785 80.2751 125.627 80.2133 125.508 80.0905C125.276 79.8497 125.282 79.4656 125.522 79.2325C125.812 78.9508 126.103 78.6684 126.396 78.3851C126.637 78.1526 127.019 78.1593 127.251 78.4006C127.483 78.6418 127.477 79.0259 127.236 79.2586C126.944 79.5412 126.653 79.8232 126.364 80.1042C126.246 80.2183 126.095 80.2751 125.943 80.2751ZM5.62681 78.6507C5.54345 78.6507 5.45882 78.6333 5.37788 78.5965C5.07348 78.4584 4.93834 78.099 5.07602 77.7937C5.11486 77.7075 5.15388 77.6217 5.19308 77.5361C5.32422 77.2494 5.46009 76.9603 5.59674 76.6764C5.74199 76.3746 6.10367 76.2482 6.40457 76.3939C6.7054 76.5396 6.83153 76.9024 6.68622 77.2042C6.55296 77.481 6.42048 77.763 6.29253 78.0426C6.2543 78.1261 6.21625 78.2098 6.17838 78.2938C6.0773 78.518 5.85717 78.6507 5.62681 78.6507ZM129.005 77.3196C128.846 77.3196 128.687 77.2569 128.568 77.1322C128.337 76.8901 128.346 76.5059 128.587 76.2743C128.879 75.9946 129.172 75.714 129.466 75.4327C129.708 75.2014 130.091 75.2107 130.321 75.4535C130.552 75.6961 130.543 76.0802 130.301 76.3113C130.007 76.5922 129.714 76.8722 129.423 77.1514C129.306 77.2638 129.155 77.3196 129.005 77.3196ZM7.54558 74.8499C7.44504 74.8499 7.34323 74.8247 7.24941 74.7717C6.95826 74.6074 6.85512 74.2374 7.01899 73.9454C7.21898 73.5891 7.42611 73.2305 7.63463 72.8796C7.80564 72.5919 8.17689 72.4976 8.46399 72.6691C8.75097 72.8406 8.84491 73.2131 8.6739 73.501C8.47052 73.8433 8.26841 74.193 8.07332 74.5407C7.9622 74.7385 7.75695 74.8499 7.54558 74.8499ZM132.086 74.3839C131.925 74.3839 131.765 74.3201 131.646 74.1936C131.417 73.9498 131.428 73.5658 131.671 73.3358C131.964 73.058 132.259 72.7794 132.556 72.5C132.799 72.2704 133.182 72.2823 133.411 72.5264C133.639 72.7705 133.628 73.1546 133.384 73.3841C133.089 73.663 132.794 73.9412 132.501 74.2185C132.384 74.3291 132.235 74.3839 132.086 74.3839ZM135.187 71.469C135.025 71.469 134.863 71.4041 134.744 71.2757C134.516 71.0304 134.53 70.6465 134.774 70.4181C135.07 70.1421 135.367 69.8656 135.665 69.5883C135.91 69.3605 136.293 69.375 136.52 69.6207C136.747 69.8665 136.733 70.2504 136.488 70.4782C136.19 70.755 135.894 71.0309 135.599 71.3062C135.482 71.4151 135.334 71.469 135.187 71.469ZM9.78703 71.2316C9.66955 71.2316 9.55086 71.1974 9.44651 71.1259C9.17061 70.937 9.09964 70.5595 9.28796 70.2827C9.51741 69.9455 9.75466 69.606 9.99313 69.2732C10.1882 69.001 10.5662 68.939 10.8374 69.1346C11.1086 69.3301 11.1705 69.7093 10.9755 69.9814C10.7428 70.3062 10.5111 70.6378 10.2872 70.9669C10.1701 71.139 9.98018 71.2316 9.78703 71.2316ZM138.308 68.5758C138.144 68.5758 137.981 68.5098 137.862 68.3794C137.636 68.1325 137.652 67.7487 137.898 67.5221C138.196 67.2483 138.495 66.9737 138.795 66.6986C139.041 66.4725 139.424 66.4898 139.649 66.7371C139.875 66.9845 139.858 67.3683 139.611 67.5944C139.311 67.8689 139.013 68.1429 138.716 68.4161C138.6 68.523 138.454 68.5758 138.308 68.5758ZM12.3289 67.8161C12.1947 67.8161 12.0597 67.7715 11.9475 67.6799C11.6884 67.4685 11.6492 67.0863 11.8601 66.8263C12.1172 66.5094 12.3821 66.1905 12.6474 65.8788C12.8644 65.6239 13.2462 65.5936 13.5003 65.8112C13.7544 66.0287 13.7845 66.4117 13.5677 66.6666C13.3084 66.9712 13.0497 67.2825 12.7985 67.5922C12.679 67.7395 12.5047 67.8161 12.3289 67.8161ZM141.449 65.7049C141.284 65.7049 141.119 65.6376 141 65.5051C140.776 65.2566 140.795 64.873 141.043 64.6481C141.342 64.3764 141.643 64.1041 141.945 63.8311C142.193 63.6069 142.576 63.6268 142.799 63.8758C143.023 64.1247 143.003 64.5084 142.755 64.7327C142.453 65.0051 142.153 65.2769 141.854 65.548C141.739 65.6531 141.593 65.7049 141.449 65.7049ZM15.1449 64.6214C14.9944 64.6214 14.8436 64.5654 14.7263 64.4526C14.4852 64.2207 14.477 63.8367 14.7083 63.5948C14.9901 63.2999 15.2799 63.0035 15.5698 62.7138C15.8065 62.4773 16.1895 62.4779 16.4253 62.7153C16.6611 62.9526 16.6605 63.3368 16.4238 63.5733C16.1404 63.8566 15.8571 64.1463 15.5816 64.4345C15.4629 64.5588 15.304 64.6214 15.1449 64.6214ZM144.611 62.8566C144.444 62.8566 144.278 62.7881 144.159 62.6537C143.937 62.4035 143.958 62.02 144.208 61.797C144.509 61.5274 144.812 61.2573 145.116 60.9866C145.366 60.7641 145.748 60.7869 145.97 61.0375C146.192 61.2881 146.169 61.6716 145.919 61.894C145.616 62.1642 145.314 62.4338 145.013 62.7028C144.898 62.8059 144.754 62.8566 144.611 62.8566ZM18.2073 61.6611C18.0408 61.6611 17.8751 61.5926 17.7556 61.4581C17.5333 61.2079 17.5552 60.8244 17.8046 60.6014C18.1086 60.3297 18.4206 60.0568 18.7321 59.7903C18.9863 59.5729 19.3681 59.6033 19.5849 59.8583C19.8017 60.1133 19.7714 60.4962 19.5172 60.7137C19.2124 60.9744 18.9071 61.2414 18.6097 61.5074C18.4943 61.6104 18.3506 61.6611 18.2073 61.6611ZM147.793 60.0315C147.625 60.0315 147.458 59.9617 147.339 59.8252C147.118 59.5735 147.143 59.1901 147.394 58.9689C147.697 58.7015 148.002 58.4336 148.308 58.1651C148.559 57.9445 148.942 57.97 149.162 58.2223C149.382 58.4745 149.356 58.8578 149.105 59.0784C148.799 59.3463 148.495 59.6137 148.192 59.8805C148.078 59.9817 147.935 60.0315 147.793 60.0315ZM21.4885 58.9446C21.3065 58.9446 21.1265 58.8626 21.0074 58.7063C20.8045 58.4401 20.8552 58.0593 21.1207 57.8558C21.444 57.6079 21.7756 57.3592 22.1062 57.1166C22.3759 56.9188 22.7544 56.9776 22.9516 57.2481C23.1489 57.5185 23.0902 57.8981 22.8206 58.096C22.4967 58.3336 22.172 58.5771 21.8554 58.8199C21.7458 58.904 21.6165 58.9446 21.4885 58.9446ZM150.997 57.2295C150.827 57.2295 150.659 57.1584 150.539 57.0197C150.321 56.7664 150.348 56.3832 150.601 56.1639L150.84 55.9567C151.067 55.7595 151.294 55.5629 151.521 55.367C151.774 55.1482 152.156 55.1765 152.374 55.4303C152.592 55.6841 152.564 56.0672 152.311 56.2861C152.085 56.4816 151.858 56.6778 151.631 56.8749L151.393 57.0816C151.278 57.1808 151.137 57.2295 150.997 57.2295ZM24.9616 56.4781C24.7645 56.4781 24.5712 56.3816 24.455 56.2039C24.2719 55.9237 24.35 55.5475 24.6294 55.3639C24.9698 55.14 25.3185 54.9159 25.6654 54.6977C25.9484 54.5197 26.3218 54.6056 26.4992 54.8895C26.6767 55.1735 26.5911 55.5479 26.308 55.7259C25.9679 55.9397 25.6263 56.1594 25.2926 56.3788C25.1903 56.446 25.0753 56.4781 24.9616 56.4781ZM154.221 54.451C154.05 54.451 153.88 54.3788 153.761 54.238C153.544 53.9831 153.574 53.6001 153.828 53.3826C154.138 53.1176 154.447 52.8542 154.754 52.5923C155.009 52.3754 155.391 52.4066 155.607 52.662C155.823 52.9175 155.792 53.3004 155.538 53.5173C155.231 53.7786 154.923 54.0415 154.614 54.3059C154.5 54.4033 154.36 54.451 154.221 54.451ZM28.5985 54.266C28.3867 54.266 28.181 54.1542 28.0702 53.9557C27.907 53.6633 28.0109 53.2935 28.3024 53.1298C28.6563 52.931 29.0182 52.7323 29.378 52.5394C29.6726 52.3812 30.0391 52.4928 30.1967 52.7882C30.3543 53.0837 30.2432 53.4514 29.9485 53.6094C29.5956 53.7988 29.2406 53.9936 28.8936 54.1886C28.8001 54.241 28.6986 54.266 28.5985 54.266ZM32.374 52.3098C32.1478 52.3098 31.9308 52.1819 31.8272 51.9634C31.6838 51.6607 31.8122 51.2987 32.114 51.1549C32.48 50.9805 32.8542 50.8065 33.226 50.6378C33.5304 50.4998 33.8888 50.6353 34.0264 50.9405C34.1642 51.2458 34.029 51.6053 33.7246 51.7434C33.3597 51.909 32.9925 52.0797 32.6332 52.251C32.5494 52.2909 32.461 52.3098 32.374 52.3098ZM157.466 51.6962C157.293 51.6962 157.122 51.6226 157.002 51.4798C156.787 51.2232 156.82 50.8405 157.076 50.625C157.388 50.3621 157.699 50.1009 158.008 49.8415C158.264 49.6265 158.646 49.6604 158.86 49.9174C159.074 50.1743 159.04 50.557 158.784 50.7721C158.476 51.031 158.166 51.2917 157.855 51.5541C157.741 51.6495 157.603 51.6962 157.466 51.6962ZM36.2695 50.6068C36.029 50.6068 35.8017 50.462 35.7073 50.2243C35.5837 49.913 35.7352 49.5601 36.0455 49.4362C36.4221 49.2857 36.8065 49.1363 37.1881 48.9919C37.5007 48.8735 37.8497 49.0319 37.9676 49.3454C38.0856 49.6589 37.9278 50.009 37.6152 50.1273C37.2403 50.2691 36.8628 50.4159 36.4931 50.5636C36.4197 50.5929 36.3439 50.6068 36.2695 50.6068ZM40.265 49.1552C40.0105 49.1552 39.7737 48.9929 39.6902 48.7371C39.5863 48.4186 39.7595 48.076 40.077 47.9717C40.464 47.8447 40.8568 47.7195 41.2446 47.5998C41.564 47.5012 41.9024 47.6808 42.0008 48.001C42.0991 48.3213 41.92 48.6609 41.6007 48.7595C41.2197 48.8772 40.8336 49.0002 40.4534 49.125C40.3908 49.1455 40.3274 49.1552 40.265 49.1552ZM160.73 48.9651C160.556 48.9651 160.383 48.8902 160.264 48.7453C160.051 48.4872 160.087 48.1047 160.344 47.891C160.658 47.6302 160.97 47.3713 161.281 47.1142C161.539 46.901 161.92 46.9379 162.133 47.1964C162.345 47.4549 162.308 47.8373 162.051 48.0505C161.741 48.307 161.429 48.5654 161.115 48.8256C161.003 48.9194 160.866 48.9651 160.73 48.9651ZM44.3422 47.9533C44.0736 47.9533 43.8284 47.7726 43.7573 47.4998C43.6729 47.1756 43.8664 46.8441 44.1896 46.7594C44.5821 46.6565 44.9816 46.5554 45.3771 46.4589C45.7019 46.3799 46.0289 46.5794 46.1078 46.905C46.1868 47.2306 45.9877 47.5588 45.6631 47.6379C45.2743 47.7328 44.8815 47.8322 44.4956 47.9334C44.4443 47.9469 44.3928 47.9533 44.3422 47.9533ZM48.4836 46.9981C48.201 46.9981 47.9483 46.7983 47.891 46.5097C47.8258 46.1811 48.0385 45.8616 48.3661 45.7962C48.7649 45.7165 49.1696 45.6391 49.569 45.5663C49.898 45.5063 50.2126 45.7249 50.2724 46.0546C50.3322 46.3843 50.1142 46.7002 49.7855 46.7602C49.3927 46.8318 48.9947 46.9079 48.6025 46.9862C48.5626 46.9942 48.5228 46.9981 48.4836 46.9981ZM52.6738 46.2866C52.3769 46.2866 52.1178 46.0672 52.0754 45.7638C52.0292 45.4319 52.2599 45.1253 52.5908 45.0789C52.9928 45.0225 53.4012 44.9686 53.8045 44.9186C54.1364 44.8775 54.4381 45.1139 54.479 45.4465C54.5199 45.7791 54.2843 46.0819 53.9527 46.123C53.5558 46.1722 53.154 46.2252 52.7583 46.2807C52.7299 46.2846 52.7017 46.2866 52.6738 46.2866ZM164.014 46.2578C163.839 46.2578 163.665 46.1816 163.545 46.0346C163.334 45.7749 163.372 45.3927 163.631 45.1809C163.947 44.9222 164.262 44.6656 164.574 44.411C164.833 44.1998 165.214 44.2391 165.425 44.4992C165.636 44.7593 165.596 45.1414 165.337 45.3528C165.025 45.6069 164.712 45.863 164.396 46.1211C164.284 46.213 164.148 46.2578 164.014 46.2578ZM167.318 43.5745C167.141 43.5745 166.965 43.497 166.846 43.3478C166.636 43.0866 166.678 42.7047 166.938 42.4947C167.256 42.2382 167.573 41.9838 167.886 41.7318C168.147 41.5223 168.528 41.5647 168.737 41.8262C168.946 42.0878 168.903 42.4696 168.643 42.6791C168.329 42.9306 168.014 43.1844 167.696 43.4406C167.584 43.5307 167.45 43.5745 167.318 43.5745ZM170.641 40.9153C170.462 40.9153 170.285 40.8364 170.166 40.6852C169.958 40.4225 170.003 40.0409 170.265 39.833C170.585 39.5782 170.903 39.3262 171.219 39.0769C171.481 38.8693 171.861 38.9145 172.068 39.1777C172.275 39.4408 172.23 39.8223 171.968 40.0298C171.653 40.2786 171.336 40.5301 171.016 40.7843C170.905 40.8725 170.772 40.9153 170.641 40.9153ZM173.983 38.2807C173.803 38.2807 173.625 38.2004 173.505 38.0471C173.3 37.7828 173.347 37.4015 173.61 37.1955C173.933 36.9427 174.253 36.693 174.57 36.4465C174.834 36.2411 175.214 36.2888 175.419 36.5536C175.624 36.8182 175.576 37.1994 175.312 37.4049C174.996 37.6509 174.677 37.9001 174.354 38.1523C174.244 38.2388 174.113 38.2807 173.983 38.2807ZM177.344 35.6708C177.163 35.6708 176.983 35.5892 176.864 35.4336C176.661 35.1679 176.711 34.7869 176.976 34.5828C177.301 34.3318 177.623 34.0845 177.941 33.841C178.206 33.6375 178.586 33.6882 178.789 33.9544C178.992 34.2206 178.941 34.6013 178.676 34.8049C178.359 35.0479 178.038 35.2947 177.713 35.5453C177.603 35.6298 177.473 35.6708 177.344 35.6708ZM180.725 33.0861C180.542 33.0861 180.361 33.0031 180.243 32.8454C180.041 32.5781 180.094 32.1976 180.36 31.9954C180.689 31.7456 181.013 31.5008 181.331 31.2608C181.598 31.0593 181.977 31.1129 182.178 31.3806C182.379 31.6483 182.325 32.0287 182.058 32.2302C181.741 32.4697 181.418 32.7141 181.09 32.9633C180.981 33.0461 180.853 33.0861 180.725 33.0861Z" fill="var(--fill-0, #7B4EAB)"/>
</g>
</svg>
