<svg preserveAspectRatio="none" width="100%" height="100%" overflow="visible" style="display: block;" viewBox="0 0 32 30" fill="none" xmlns="http://www.w3.org/2000/svg">
<g id="Icon-Set-Filled">
<path id="briefcase" d="M18 16C18 15.6 17.9 15.3 17.7 15H14.3C14.1 15.3 14 15.6 14 16C14 17.1 14.9 18 16 18C17.1 18 18 17.1 18 16ZM20 16C20 18.2 18.2 20 16 20C13.8 20 12 18.2 12 16C12 15.7 12.1 15.3 12.1 15H0V26C0 28.2 1.8 30 4 30H28C30.2 30 32 28.2 32 26V15H19.9C19.9 15.3 20 15.7 20 16ZM20 4H12V3C12 2.4 12.4 2 13 2H19C19.6 2 20 2.4 20 3V4ZM28 4H22V2C22 0.9 21.1 0 20 0H12C10.9 0 10 0.9 10 2V4H4C1.8 4 0 5.8 0 8V13H32V8C32 5.8 30.2 4 28 4Z" fill="var(--fill-0, #7B4EAB)"/>
</g>
</svg>
