<svg preserveAspectRatio="none" width="100%" height="100%" overflow="visible" style="display: block;" viewBox="0 0 41 46" fill="none" xmlns="http://www.w3.org/2000/svg">
<g id="Group 152">
<path id="Vector" d="M37.1008 32.7183C23.7584 36.443 20.786 24.1798 20.6733 23.6943H20.6691C21.3746 28.394 23.391 31.1559 25.8875 32.7143C25.2571 33.9912 24.5474 34.8968 24.0089 35.5006C22.5101 37.1691 21.3454 37.5363 20.4729 39.0539C19.8759 40.0901 19.7423 41.1141 19.7172 41.8199C9.94837 32.5796 18.7487 24.0982 19.4668 23.4373C15.6761 26.3705 14.2442 29.4465 14.1148 32.3267C12.6661 32.4328 11.5055 32.2859 10.704 32.1309C8.47469 31.6944 7.57295 30.8948 5.79034 30.9152C4.57132 30.9274 3.59861 31.3272 2.95987 31.6576C6.23704 18.86 18.0181 21.936 19.1036 22.2461C14.6199 20.5204 11.1883 20.8427 8.57488 22.1686C7.75664 20.9936 7.30577 19.9411 7.04276 19.1823C6.31218 17.0813 6.57101 15.9146 5.66092 14.4174C5.03889 13.3934 4.19977 12.7652 3.58608 12.3939C16.9285 8.66927 19.9009 20.9325 20.0136 21.4179H20.0178C19.3123 16.7183 17.2959 13.9564 14.7994 12.398C15.4298 11.1211 16.1395 10.2154 16.678 9.61165C18.1768 7.9431 19.3415 7.57594 20.214 6.05834C20.811 5.02213 20.9446 3.99816 20.9697 3.29239C30.7385 12.5326 21.9382 21.014 21.2201 21.6749C25.0108 18.7417 26.4427 15.6657 26.5721 12.7856C28.0208 12.6795 29.1814 12.8263 29.9829 12.9814C32.2122 13.4179 33.1139 14.2175 34.8966 14.1971C36.1156 14.1848 37.0883 13.785 37.727 13.4546C34.4499 26.2522 22.6688 23.1762 21.5833 22.8662C26.067 24.5918 29.4986 24.2695 32.112 22.9437C32.9303 24.1186 33.3811 25.1711 33.6441 25.9299C34.3747 28.0309 34.1159 29.1977 35.026 30.6949C35.648 31.7188 36.4871 32.3471 37.1008 32.7183Z" fill="var(--fill-0, #7B4EAB)"/>
<path id="Vector_2" d="M40.6869 33.224L40.3154 31.943C38.4159 32.1266 37.4473 31.6248 36.9171 31.1679C35.6271 30.0583 35.982 28.3693 34.9007 25.428C34.3831 24.0124 33.7244 22.916 33.3111 22.2714L32.3583 22.813C38.4868 19.5003 39.973 10.6681 39.973 10.6681L38.6538 10.3417C37.8648 12.0388 36.9338 12.61 36.2659 12.8302C34.6377 13.3688 33.3185 12.2224 30.1708 11.6676C28.6553 11.4024 27.313 11.3529 26.5365 11.3815L26.5805 12.5161C26.7057 5.67468 19.6254 0 19.6254 0L18.6777 0.954619C19.7882 2.47222 19.83 3.54107 19.688 4.21828C19.3499 5.86642 17.6758 6.40901 15.6093 8.79555C14.6157 9.94599 13.9358 11.0666 13.5684 11.7397L14.5155 12.2265C8.52062 8.75068 0 11.8879 0 11.8879L0.371551 13.1689C2.27105 12.9853 3.23959 13.4871 3.76978 13.944C5.05977 15.0536 4.70492 16.7426 5.78618 19.6839C6.30384 21.0995 6.96256 22.237 7.37586 22.8816L8.32859 22.2989C2.20008 25.6115 0.713879 34.4438 0.713879 34.4438L2.03309 34.7702C2.82212 33.0731 3.75308 32.5019 4.42104 32.2816C6.04918 31.7431 7.3684 32.8895 10.5161 33.4443C12.0316 33.7095 13.3339 33.6914 14.1104 33.6628L14.1064 32.5958C13.9812 39.4372 21.0615 45.1119 21.0615 45.1119L22.0092 44.1573C20.8987 42.6397 20.857 41.5708 20.9989 40.8936C21.337 39.2455 23.0111 38.7029 25.0776 36.3163C26.0712 35.1659 26.7106 34.0494 27.078 33.3763L26.1881 32.8936C32.183 36.3571 40.6869 33.224 40.6869 33.224ZM20.6733 23.6941H20.6691C21.3746 28.3938 23.391 31.1557 25.8875 32.7141L26.1088 32.8487C26.0336 32.8038 25.9585 32.759 25.8875 32.7141C25.2571 33.991 24.5474 34.8966 24.0089 35.5004C22.5101 37.169 21.3454 37.5361 20.4729 39.0537C19.8759 40.0899 19.7423 41.1139 19.7173 41.8197C9.94838 32.5795 18.7487 24.098 19.4668 23.4371C15.6761 26.3703 14.2442 29.4463 14.1148 32.3265C12.6661 32.4326 11.5056 32.2857 10.704 32.1307C8.4747 31.6942 7.57296 30.8946 5.79035 30.915C4.57133 30.9272 3.59862 31.327 2.95988 31.6575C6.23705 18.8599 18.0181 21.9359 19.1036 22.2459C14.6199 20.5202 11.1883 20.8425 8.5749 22.1684C7.75665 20.9935 7.30578 19.9409 7.04277 19.1821C6.31219 17.0812 6.57103 15.9144 5.66093 14.4172C5.0389 13.3932 4.19978 12.765 3.58609 12.3937C16.9285 8.66909 19.9009 20.9323 20.0137 21.4177H20.0178C19.3123 16.7181 17.2959 13.9562 14.7994 12.3978L14.5782 12.2632C14.6533 12.3081 14.7284 12.3529 14.7994 12.3978C15.4298 11.1209 16.1395 10.2152 16.678 9.61147C18.1768 7.94292 19.3415 7.57576 20.214 6.05816C20.811 5.02195 20.9446 3.99798 20.9697 3.29221C30.7385 12.5324 21.9382 21.0139 21.2202 21.6748C25.0108 18.7415 26.4427 15.6656 26.5722 12.7854C28.0208 12.6793 29.1814 12.8262 29.9829 12.9812C32.2122 13.4177 33.114 14.2173 34.8966 14.1969C36.1156 14.1847 37.0883 13.7849 37.727 13.4544C34.4499 26.252 22.6688 23.176 21.5834 22.866C26.067 24.5917 29.4986 24.2694 32.112 22.9435C32.9303 24.1184 33.3811 25.171 33.6441 25.9298C34.3747 28.0307 34.1159 29.1975 35.026 30.6947C35.648 31.7187 36.4871 32.3469 37.1008 32.7182C23.7584 36.4428 20.786 24.1796 20.6733 23.6941Z" fill="var(--fill-0, white)"/>
</g>
</svg>
