<svg preserveAspectRatio="none" width="100%" height="100%" overflow="visible" style="display: block;" viewBox="0 0 32 32" fill="none" xmlns="http://www.w3.org/2000/svg">
<g id="bold" clip-path="url(#clip0_3575_62394)">
<path id="Vector" d="M12 13.3333C8.324 13.3333 5.33333 10.3427 5.33333 6.66667C5.33333 2.99067 8.324 -4.76837e-07 12 -4.76837e-07C15.676 -4.76837e-07 18.6667 2.99067 18.6667 6.66667C18.6667 10.3427 15.676 13.3333 12 13.3333Z" fill="var(--fill-0, #7B4EAB)"/>
<path id="Vector_2" d="M6.33333 16C2.84 16 -4.76837e-07 18.84 -4.76837e-07 22.3333V27C-4.76837e-07 27.5467 0.453333 28 1 28H13.3333V23.6667C13.3333 21.16 15.2 19.0933 17.6133 18.7333C17.96 17.72 18.6133 16.8667 19.4533 16.2533C18.12 15.872 18.048 16 6.33333 16Z" fill="var(--fill-0, #7B4EAB)"/>
<path id="Vector_3" d="M29.6667 21.3333H28V20.3333C28 19.0467 26.9533 18 25.6667 18H22.3333C21.0467 18 20 19.0467 20 20.3333V21.3333H18.3333C17.6773 21.3333 17.0867 21.6067 16.6627 22.044L24 25.872L31.3373 22.044C30.9133 21.6067 30.3227 21.3333 29.6667 21.3333ZM22 21.3333V20.3333C22 20.1493 22.1493 20 22.3333 20H25.6667C25.8507 20 26 20.1493 26 20.3333V21.3333H22Z" fill="var(--fill-0, #7B4EAB)"/>
<path id="Vector_4" d="M24.4627 27.8867C24.1733 28.0373 23.8267 28.0373 23.5387 27.8867L16 23.9533V29.6667C16 30.9533 17.0467 32 18.3333 32H29.6667C30.9533 32 32 30.9533 32 29.6667V23.9533L24.4627 27.8867Z" fill="var(--fill-0, #7B4EAB)"/>
</g>
<defs>
<clipPath id="clip0_3575_62394">
<rect width="32" height="32" fill="white"/>
</clipPath>
</defs>
</svg>
