<svg preserveAspectRatio="none" width="100%" height="100%" overflow="visible" style="display: block;" viewBox="0 0 36 36" fill="none" xmlns="http://www.w3.org/2000/svg">
<g id="carbon:user-avatar-filled">
<g id="Vector">
</g>
<path id="Vector_2" d="M30.0926 28.0463C31.7083 26.1024 32.832 23.798 33.3686 21.328C33.9053 18.858 33.8392 16.2951 33.1759 13.856C32.5126 11.417 31.2716 9.17355 29.5579 7.31555C27.8442 5.45756 25.7081 4.03964 23.3306 3.18175C20.953 2.32386 18.4037 2.05123 15.8985 2.38693C13.3932 2.72263 11.0057 3.65678 8.93781 5.11036C6.86994 6.56394 5.18259 8.49418 4.01849 10.7378C2.85439 12.9814 2.24779 15.4724 2.25001 18C2.25095 21.6745 3.5458 25.2312 5.90738 28.0463L5.88488 28.0654C5.96363 28.1599 6.05363 28.2409 6.13463 28.3343C6.23588 28.4502 6.34501 28.5593 6.44963 28.6718C6.76313 29.0145 7.08938 29.3408 7.42838 29.6505C7.53338 29.7435 7.63838 29.8343 7.74338 29.9228C8.10338 30.234 8.47463 30.5273 8.85713 30.8025C8.90663 30.8363 8.95163 30.8802 9.00113 30.915V30.9015C11.6359 32.7559 14.7792 33.7511 18.0011 33.7511C21.2231 33.7511 24.3663 32.7559 27.0011 30.9015V30.915C27.0506 30.8802 27.0945 30.8363 27.1451 30.8025C27.5276 30.5265 27.8989 30.2333 28.2589 29.9228C28.3639 29.8335 28.4689 29.7428 28.5739 29.6505C28.9121 29.3408 29.2384 29.0145 29.5526 28.6718C29.6573 28.5593 29.7653 28.4502 29.8676 28.3343C29.9475 28.2409 30.0386 28.1599 30.1174 28.0643L30.0926 28.0463ZM18 9.00004C19.0013 9.00004 19.9801 9.29695 20.8126 9.85323C21.6451 10.4095 22.294 11.2002 22.6771 12.1252C23.0603 13.0503 23.1606 14.0682 22.9652 15.0502C22.7699 16.0322 22.2877 16.9343 21.5797 17.6423C20.8717 18.3503 19.9697 18.8324 18.9877 19.0278C18.0056 19.2231 16.9877 19.1229 16.0627 18.7397C15.1376 18.3565 14.347 17.7076 13.7907 16.8751C13.2344 16.0426 12.9375 15.0638 12.9375 14.0625C12.9375 12.7199 13.4709 11.4322 14.4203 10.4828C15.3697 9.53341 16.6573 9.00004 18 9.00004ZM9.00788 28.0463C9.0274 26.5691 9.6277 25.159 10.6789 24.1211C11.7301 23.0831 13.1477 22.5008 14.625 22.5H21.375C22.8523 22.5008 24.2699 23.0831 25.3211 24.1211C26.3723 25.159 26.9726 26.5691 26.9921 28.0463C24.5248 30.2697 21.3213 31.5001 18 31.5001C14.6787 31.5001 11.4752 30.2697 9.00788 28.0463Z" fill="var(--fill-0, #D6C8E5)"/>
</g>
</svg>
