<svg preserveAspectRatio="none" width="100%" height="100%" overflow="visible" style="display: block;" viewBox="0 0 100 100" fill="none" xmlns="http://www.w3.org/2000/svg">
<path id="Vector" d="M88.3817 81.8939C93.5103 75.7234 97.0772 68.4084 98.7809 60.5678C100.484 52.7272 100.275 44.5916 98.169 36.8492C96.0634 29.1069 92.1241 21.9856 86.6842 16.0877C81.2443 10.1898 74.4639 5.68884 66.9166 2.96561C59.3694 0.242377 51.2772 -0.623032 43.3247 0.442591C35.3722 1.50821 27.7934 4.47352 21.2293 9.08766C14.6652 13.7018 9.30902 19.829 5.61378 26.951C1.91854 34.073 -0.00700866 41.9802 1.91685e-05 50.0038C0.00302124 61.6677 4.11331 72.958 11.6097 81.8939L11.5383 81.9546C11.7883 82.2546 12.074 82.5117 12.3311 82.8081C12.6525 83.1759 12.9989 83.5223 13.331 83.8794C14.3262 84.9674 15.3618 86.0031 16.4379 86.9863C16.7712 87.2815 17.1045 87.5696 17.4378 87.8505C18.5806 88.8385 19.759 89.7694 20.9732 90.6431C21.1303 90.7503 21.2732 90.8895 21.4303 91.0002V90.9574C29.7941 96.8437 39.7719 100.003 49.9993 100.003C60.2267 100.003 70.2045 96.8437 78.5683 90.9574V91.0002C78.7254 90.8895 78.8647 90.7503 79.0254 90.6431C80.2396 89.767 81.418 88.8361 82.5608 87.8505C82.8941 87.5672 83.2274 87.2791 83.5607 86.9863C84.6344 86.0031 85.67 84.9674 86.6676 83.8794C86.9997 83.5223 87.3425 83.1759 87.6675 82.8081C87.921 82.5117 88.2103 82.2546 88.4603 81.951L88.3817 81.8939ZM49.9957 21.4348C53.1741 21.4348 56.2811 22.3773 58.9238 24.1431C61.5665 25.9089 63.6262 28.4187 64.8425 31.3551C66.0588 34.2915 66.3771 37.5227 65.757 40.64C65.1369 43.7572 63.6064 46.6206 61.359 48.8681C59.1115 51.1155 56.2481 52.646 53.1308 53.2661C50.0136 53.8862 46.7824 53.5679 43.846 52.3516C40.9096 51.1353 38.3998 49.0756 36.634 46.4329C34.8682 43.7902 33.9257 40.6832 33.9257 37.5048C33.9257 33.2428 35.6188 29.1553 38.6325 26.1416C41.6462 23.1279 45.7337 21.4348 49.9957 21.4348ZM21.4517 81.8939C21.5137 77.2049 23.4192 72.7288 26.7561 69.434C30.093 66.1392 34.593 64.2907 39.2824 64.2883H60.7091C65.3985 64.2907 69.8984 66.1392 73.2353 69.434C76.5722 72.7288 78.4778 77.2049 78.5397 81.8939C70.7077 88.9516 60.5386 92.8575 49.9957 92.8575C39.4529 92.8575 29.2838 88.9516 21.4517 81.8939Z" fill="var(--fill-0, #D6C8E5)"/>
</svg>
