<svg preserveAspectRatio="none" width="100%" height="100%" overflow="visible" style="display: block;" viewBox="0 0 15 17" fill="none" xmlns="http://www.w3.org/2000/svg">
<path id="Icon" d="M10.1667 12.6667H14.3333L13.1626 11.4959C12.845 11.1784 12.6667 10.7477 12.6667 10.2987V7.66667C12.6667 5.48964 11.2753 3.63757 9.33333 2.95118V2.66667C9.33333 1.74619 8.58714 1 7.66667 1C6.74619 1 6 1.74619 6 2.66667V2.95118C4.05801 3.63757 2.66667 5.48964 2.66667 7.66667V10.2987C2.66667 10.7477 2.48829 11.1784 2.17078 11.4959L1 12.6667H5.16667M10.1667 12.6667V13.5C10.1667 14.8807 9.04738 16 7.66667 16C6.28595 16 5.16667 14.8807 5.16667 13.5V12.6667M10.1667 12.6667H5.16667" stroke="var(--stroke-0, #1F1F1F)" stroke-width="1.2" stroke-linecap="round" stroke-linejoin="round"/>
</svg>
