<svg preserveAspectRatio="none" width="100%" height="100%" overflow="visible" style="display: block;" viewBox="0 0 19 15" fill="none" xmlns="http://www.w3.org/2000/svg">
<path id="Icon" d="M13.5 14.3333H17.6667V12.6667C17.6667 11.286 16.5474 10.1667 15.1667 10.1667C14.3703 10.1667 13.661 10.539 13.2031 11.1191M13.5 14.3333H5.16667M13.5 14.3333V12.6667C13.5 12.1198 13.3946 11.5975 13.2031 11.1191M5.16667 14.3333H1V12.6667C1 11.286 2.11929 10.1667 3.5 10.1667C4.29634 10.1667 5.00572 10.539 5.46354 11.1191M5.16667 14.3333V12.6667C5.16667 12.1198 5.27202 11.5975 5.46354 11.1191M5.46354 11.1191C6.07792 9.58419 7.57901 8.5 9.33333 8.5C11.0877 8.5 12.5887 9.58419 13.2031 11.1191M11.8333 3.5C11.8333 4.88071 10.714 6 9.33333 6C7.95262 6 6.83333 4.88071 6.83333 3.5C6.83333 2.11929 7.95262 1 9.33333 1C10.714 1 11.8333 2.11929 11.8333 3.5ZM16.8333 6C16.8333 6.92047 16.0871 7.66667 15.1667 7.66667C14.2462 7.66667 13.5 6.92047 13.5 6C13.5 5.07952 14.2462 4.33333 15.1667 4.33333C16.0871 4.33333 16.8333 5.07952 16.8333 6ZM5.16667 6C5.16667 6.92047 4.42047 7.66667 3.5 7.66667C2.57953 7.66667 1.83333 6.92047 1.83333 6C1.83333 5.07952 2.57953 4.33333 3.5 4.33333C4.42047 4.33333 5.16667 5.07952 5.16667 6Z" stroke="var(--stroke-0, #1F1F1F)" stroke-width="1.2" stroke-linecap="round" stroke-linejoin="round"/>
</svg>
