<svg preserveAspectRatio="none" width="100%" height="100%" overflow="visible" style="display: block;" viewBox="0 0 17 17" fill="none" xmlns="http://www.w3.org/2000/svg">
<g id="Icon">
<path d="M7.10386 2.09776C7.45919 0.63408 9.54081 0.634081 9.89615 2.09776C10.1257 3.04327 11.209 3.49198 12.0398 2.98571C13.3261 2.20199 14.798 3.67392 14.0143 4.96015C13.508 5.79105 13.9567 6.87431 14.9022 7.10386C16.3659 7.45919 16.3659 9.54081 14.9022 9.89614C13.9567 10.1257 13.508 11.209 14.0143 12.0398C14.798 13.3261 13.3261 14.798 12.0398 14.0143C11.209 13.508 10.1257 13.9567 9.89615 14.9022C9.54081 16.3659 7.45919 16.3659 7.10386 14.9022C6.87431 13.9567 5.79105 13.508 4.96016 14.0143C3.67392 14.798 2.20199 13.3261 2.98571 12.0398C3.49198 11.209 3.04327 10.1257 2.09776 9.89614C0.634081 9.54081 0.63408 7.45919 2.09776 7.10386C3.04327 6.87431 3.49198 5.79105 2.98571 4.96015C2.20199 3.67392 3.67392 2.20199 4.96015 2.98571C5.79105 3.49198 6.87431 3.04327 7.10386 2.09776Z" stroke="var(--stroke-0, #1F1F1F)" stroke-width="1.2" stroke-linecap="round" stroke-linejoin="round"/>
<path d="M11 8.5C11 9.88071 9.88071 11 8.5 11C7.11929 11 6 9.88071 6 8.5C6 7.11929 7.11929 6 8.5 6C9.88071 6 11 7.11929 11 8.5Z" stroke="var(--stroke-0, #1F1F1F)" stroke-width="1.2" stroke-linecap="round" stroke-linejoin="round"/>
</g>
</svg>
