<svg preserveAspectRatio="none" width="100%" height="100%" overflow="visible" style="display: block;" viewBox="0 0 17 14" fill="none" xmlns="http://www.w3.org/2000/svg">
<path id="Icon" d="M12.6667 4.33333V2.66667C12.6667 1.74619 11.9205 1 11 1H2.66667C1.74619 1 1 1.74619 1 2.66667V7.66667C1 8.58714 1.74619 9.33333 2.66667 9.33333H4.33333M6 12.6667H14.3333C15.2538 12.6667 16 11.9205 16 11V6C16 5.07953 15.2538 4.33333 14.3333 4.33333H6C5.07953 4.33333 4.33333 5.07953 4.33333 6V11C4.33333 11.9205 5.07953 12.6667 6 12.6667ZM11.8333 8.5C11.8333 9.42048 11.0871 10.1667 10.1667 10.1667C9.24619 10.1667 8.5 9.42048 8.5 8.5C8.5 7.57953 9.24619 6.83333 10.1667 6.83333C11.0871 6.83333 11.8333 7.57953 11.8333 8.5Z" stroke="var(--stroke-0, #1F1F1F)" stroke-width="1.2" stroke-linecap="round" stroke-linejoin="round"/>
</svg>
