<svg preserveAspectRatio="none" width="100%" height="100%" overflow="visible" style="display: block;" viewBox="0 0 17 17" fill="none" xmlns="http://www.w3.org/2000/svg">
<path id="Icon" d="M16 10.3795C13.6839 11.3171 11.1523 11.8333 8.5 11.8333C5.84775 11.8333 3.31608 11.3171 1 10.3795M11.8333 4.33333V2.66667C11.8333 1.74619 11.0871 1 10.1667 1H6.83333C5.91286 1 5.16667 1.74619 5.16667 2.66667V4.33333M8.5 9.33333H8.50833M2.66667 16H14.3333C15.2538 16 16 15.2538 16 14.3333V6C16 5.07953 15.2538 4.33333 14.3333 4.33333H2.66667C1.74619 4.33333 1 5.07953 1 6V14.3333C1 15.2538 1.74619 16 2.66667 16Z" stroke="var(--stroke-0, #1F1F1F)" stroke-width="1.2" stroke-linecap="round" stroke-linejoin="round"/>
</svg>
