<svg preserveAspectRatio="none" width="100%" height="100%" overflow="visible" style="display: block;" viewBox="0 0 83 83" fill="none" xmlns="http://www.w3.org/2000/svg">
<g id="fluent:building-48-filled">
<path id="Vector" d="M13.8264 14.2583C13.8264 12.3102 14.6003 10.442 15.9778 9.06446C17.3553 7.68696 19.2235 6.91309 21.1716 6.91309H47.9601C49.9082 6.91309 51.7765 7.68696 53.154 9.06446C54.5315 10.442 55.3053 12.3102 55.3053 14.2583V32.8374H61.7864C63.7345 32.8374 65.6028 33.6113 66.9803 34.9888C68.3578 36.3663 69.1316 38.2346 69.1316 40.1827V73.8843C69.1316 75.0768 68.1638 76.0447 66.9713 76.0447H58.7619V64.3787C58.7619 63.3474 58.3522 62.3583 57.623 61.629C56.8937 60.8998 55.9046 60.4901 54.8733 60.4901H28.0848C27.0534 60.4901 26.0643 60.8998 25.3351 61.629C24.6058 62.3583 24.1961 63.3474 24.1961 64.3787V76.0447H15.9868C14.7942 76.0447 13.8264 75.0768 13.8264 73.8843V14.2583ZM28.5168 76.0447H39.3187V64.8108H28.5168V76.0447ZM43.6394 76.0447H54.4412V64.8108H43.6394V76.0447ZM31.1093 24.196C31.1093 23.2792 30.7451 22.4 30.0969 21.7518C29.4486 21.1036 28.5694 20.7394 27.6527 20.7394C26.736 20.7394 25.8568 21.1036 25.2085 21.7518C24.5603 22.4 24.1961 23.2792 24.1961 24.196C24.1961 25.1127 24.5603 25.9919 25.2085 26.6402C25.8568 27.2884 26.736 27.6526 27.6527 27.6526C28.5694 27.6526 29.4486 27.2884 30.0969 26.6402C30.7451 25.9919 31.1093 25.1127 31.1093 24.196ZM27.6527 39.7506C28.5694 39.7506 29.4486 39.3864 30.0969 38.7382C30.7451 38.0899 31.1093 37.2108 31.1093 36.294C31.1093 35.3773 30.7451 34.4981 30.0969 33.8498C29.4486 33.2016 28.5694 32.8374 27.6527 32.8374C26.736 32.8374 25.8568 33.2016 25.2085 33.8498C24.5603 34.4981 24.1961 35.3773 24.1961 36.294C24.1961 37.2108 24.5603 38.0899 25.2085 38.7382C25.8568 39.3864 26.736 39.7506 27.6527 39.7506ZM31.1093 48.392C31.1093 47.4753 30.7451 46.5961 30.0969 45.9479C29.4486 45.2996 28.5694 44.9355 27.6527 44.9355C26.736 44.9355 25.8568 45.2996 25.2085 45.9479C24.5603 46.5961 24.1961 47.4753 24.1961 48.392C24.1961 49.3088 24.5603 50.188 25.2085 50.8362C25.8568 51.4844 26.736 51.8486 27.6527 51.8486C28.5694 51.8486 29.4486 51.4844 30.0969 50.8362C30.7451 50.188 31.1093 49.3088 31.1093 48.392ZM41.479 27.6526C42.3958 27.6526 43.275 27.2884 43.9232 26.6402C44.5714 25.9919 44.9356 25.1127 44.9356 24.196C44.9356 23.2792 44.5714 22.4 43.9232 21.7518C43.275 21.1036 42.3958 20.7394 41.479 20.7394C40.5623 20.7394 39.6831 21.1036 39.0348 21.7518C38.3866 22.4 38.0224 23.2792 38.0224 24.196C38.0224 25.1127 38.3866 25.9919 39.0348 26.6402C39.6831 27.2884 40.5623 27.6526 41.479 27.6526ZM44.9356 36.294C44.9356 35.3773 44.5714 34.4981 43.9232 33.8498C43.275 33.2016 42.3958 32.8374 41.479 32.8374C40.5623 32.8374 39.6831 33.2016 39.0348 33.8498C38.3866 34.4981 38.0224 35.3773 38.0224 36.294C38.0224 37.2108 38.3866 38.0899 39.0348 38.7382C39.6831 39.3864 40.5623 39.7506 41.479 39.7506C42.3958 39.7506 43.275 39.3864 43.9232 38.7382C44.5714 38.0899 44.9356 37.2108 44.9356 36.294ZM41.479 51.8486C42.3958 51.8486 43.275 51.4844 43.9232 50.8362C44.5714 50.188 44.9356 49.3088 44.9356 48.392C44.9356 47.4753 44.5714 46.5961 43.9232 45.9479C43.275 45.2996 42.3958 44.9355 41.479 44.9355C40.5623 44.9355 39.6831 45.2996 39.0348 45.9479C38.3866 46.5961 38.0224 47.4753 38.0224 48.392C38.0224 49.3088 38.3866 50.188 39.0348 50.8362C39.6831 51.4844 40.5623 51.8486 41.479 51.8486ZM58.7619 48.392C58.7619 47.4753 58.3977 46.5961 57.7495 45.9479C57.1013 45.2996 56.2221 44.9355 55.3053 44.9355C54.3886 44.9355 53.5094 45.2996 52.8612 45.9479C52.2129 46.5961 51.8488 47.4753 51.8488 48.392C51.8488 49.3088 52.2129 50.188 52.8612 50.8362C53.5094 51.4844 54.3886 51.8486 55.3053 51.8486C56.2221 51.8486 57.1013 51.4844 57.7495 50.8362C58.3977 50.188 58.7619 49.3088 58.7619 48.392Z" fill="var(--fill-0, #FAFAFA)"/>
</g>
</svg>
