<svg width="24" height="24" viewBox="0 0 24 24" fill="none" xmlns="http://www.w3.org/2000/svg">
  <path d="M12 14.5C10.6193 14.5 9.5 13.3807 9.5 12C9.5 10.6193 10.6193 9.5 12 9.5C13.3807 9.5 14.5 10.6193 14.5 12C14.5 13.3807 13.3807 14.5 12 14.5Z" stroke="currentColor" stroke-width="1.5" stroke-linecap="round" stroke-linejoin="round"/>
  <path d="M3 11C3 7.229 3 5.343 4.172 4.172C5.343 3 7.229 3 11 3H13C16.771 3 18.657 3 19.828 4.172C21 5.343 21 7.229 21 11V13C21 16.771 21 18.657 19.828 19.828C18.657 21 16.771 21 13 21H11C7.229 21 5.343 21 4.172 19.828C3 18.657 3 16.771 3 13V11Z" stroke="currentColor" stroke-width="1.5" stroke-linecap="round" stroke-linejoin="round"/>
  <path d="M9 3L9.261 2.56C9.787 1.59 10.05 1.105 10.457 0.86C10.813 0.645 11.248 0.595 11.656 0.726C12.116 0.874 12.469 1.295 13.175 2.135L13.25 2.228C13.603 2.649 13.78 2.86 14.002 2.986C14.197 3.097 14.416 3.158 14.64 3.164C14.896 3.171 15.162 3.087 15.695 2.92L15.855 2.87C16.718 2.601 17.149 2.467 17.541 2.573C17.886 2.666 18.188 2.881 18.391 3.179C18.623 3.52 18.676 3.993 18.783 4.94L18.8 5.1" stroke="currentColor" stroke-width="1.5" stroke-linecap="round" stroke-linejoin="round"/>
</svg>